<svg xmlns="http://www.w3.org/2000/svg" xmlns:xlink="http://www.w3.org/1999/xlink" preserveAspectRatio="xMidYMid" width="48" height="48" viewBox="0 0 48 48">
  <defs>
    <style>
      .cls-1 {
        fill: #464646;
      }

      .cls-2 {
        fill: #fff;
        fill-rule: evenodd;
      }
    </style>
  </defs>
  <g>
    <rect width="48" height="48" class="cls-1"/>
    <path d="M28.246,14.545 C29.123,13.366 29.790,11.700 29.549,10.000 C28.114,10.102 26.434,11.058 25.456,12.303 C24.565,13.430 23.831,15.108 24.116,16.737 C25.687,16.788 27.306,15.809 28.246,14.545 ZM36.000,30.543 C35.374,32.000 35.071,32.648 34.262,33.939 C33.134,35.736 31.541,37.979 29.568,37.995 C27.816,38.013 27.366,36.801 24.986,36.816 C22.610,36.829 22.113,38.016 20.359,38.000 C18.387,37.982 16.880,35.959 15.750,34.160 C12.593,29.132 12.261,23.230 14.209,20.090 C15.594,17.862 17.777,16.558 19.831,16.558 C21.919,16.558 23.233,17.756 24.963,17.756 C26.639,17.756 27.660,16.555 30.078,16.555 C31.907,16.555 33.842,17.597 35.221,19.394 C30.701,21.987 31.434,28.736 36.000,30.543 Z" class="cls-2"/>
  </g>
</svg>
