<svg xmlns="http://www.w3.org/2000/svg" xmlns:xlink="http://www.w3.org/1999/xlink" preserveAspectRatio="xMidYMid" width="48" height="48" viewBox="0 0 48 48">
  <defs>
    <style>
      .cls-1 {
        fill: #1e6fed;
      }

      .cls-2 {
        fill: #fff;
        fill-rule: evenodd;
      }
    </style>
  </defs>
  <g>
    <rect width="48" height="48" class="cls-1"/>
    <path d="M27.995,17.012 L33.960,17.012 L33.960,19.014 L27.995,19.014 L27.995,17.012 ZM35.983,25.970 L28.207,25.970 C28.290,27.847 29.207,29.046 30.854,29.046 C32.043,29.046 33.128,28.066 33.315,27.398 L35.921,27.398 C35.088,29.942 33.190,31.276 30.750,31.276 C27.351,31.276 25.215,28.941 25.215,25.606 C25.215,22.374 27.478,19.914 30.750,19.914 C34.419,19.914 36.191,22.655 35.983,25.970 ZM28.207,24.031 L33.023,24.031 C32.752,22.531 32.105,22.145 30.666,22.145 C28.790,22.145 28.248,23.198 28.207,24.031 ZM24.469,26.668 C24.469,29.691 21.903,30.985 19.214,30.985 L12.000,30.985 L12.000,16.005 L19.007,16.005 C21.842,16.005 23.760,17.016 23.760,19.788 C23.760,21.249 23.030,22.270 21.736,22.896 C23.552,23.417 24.469,24.814 24.469,26.668 ZM18.339,18.517 L14.993,18.517 L14.993,21.998 L18.589,21.998 C19.735,21.998 20.591,21.478 20.591,20.228 C20.591,18.810 19.506,18.517 18.339,18.517 ZM18.839,24.479 L14.993,24.479 L14.993,28.565 L18.776,28.565 C20.069,28.565 21.101,28.149 21.101,26.605 C21.101,25.084 20.236,24.479 18.839,24.479 Z" class="cls-2"/>
  </g>
</svg>
