<svg xmlns="http://www.w3.org/2000/svg" xmlns:xlink="http://www.w3.org/1999/xlink" preserveAspectRatio="xMidYMid" width="48" height="48" viewBox="0 0 48 48">
  <defs>
    <style>
      .cls-1 {
        fill: #252527;
      }

      .cls-2 {
        fill: #fff;
        fill-rule: evenodd;
      }
    </style>
  </defs>
  <g>
    <rect width="48" height="48" class="cls-1"/>
    <path d="M37.996,19.399 L37.996,19.399 C37.996,19.312 37.996,19.312 37.996,19.226 C37.996,19.226 37.996,19.226 37.996,19.140 L37.996,19.054 C37.996,19.054 37.996,19.054 37.996,18.968 L37.996,18.882 C37.996,18.882 37.996,18.882 37.996,18.795 C37.996,18.795 37.996,18.709 37.908,18.709 C37.908,18.709 37.908,18.709 37.908,18.623 C37.908,18.623 37.908,18.537 37.820,18.537 C37.820,18.537 37.820,18.537 37.733,18.451 C37.733,18.451 37.645,18.451 37.645,18.365 C37.645,18.365 37.645,18.365 37.557,18.365 L37.557,18.365 L24.657,10.180 C24.218,9.921 23.691,9.921 23.340,10.180 L10.440,18.623 L10.440,18.623 C10.440,18.623 10.440,18.623 10.352,18.623 C10.352,18.623 10.264,18.623 10.264,18.709 C10.264,18.709 10.264,18.709 10.177,18.795 C10.177,18.795 10.177,18.795 10.089,18.882 C10.089,18.882 10.089,18.882 10.089,18.968 C10.089,18.968 10.089,19.054 10.001,19.054 C10.001,19.054 10.001,19.054 10.001,19.140 L10.001,19.226 C10.001,19.226 10.001,19.226 10.001,19.312 L10.001,19.399 C10.001,19.399 10.001,19.399 10.001,19.485 L10.001,19.571 C10.001,19.571 10.001,19.571 10.001,19.657 C10.001,19.743 10.001,19.743 10.001,19.829 L10.001,28.186 C10.001,28.273 10.001,28.273 10.001,28.359 C10.001,28.359 10.001,28.359 10.001,28.445 L10.001,28.531 C10.001,28.531 10.001,28.531 10.001,28.617 L10.001,28.703 C10.001,28.703 10.001,28.703 10.001,28.789 L10.001,28.876 C10.001,28.876 10.001,28.876 10.001,28.962 C10.001,28.962 10.001,29.048 10.089,29.048 C10.089,29.048 10.089,29.048 10.089,29.134 C10.089,29.134 10.089,29.220 10.177,29.220 C10.177,29.220 10.177,29.220 10.264,29.306 C10.264,29.306 10.352,29.306 10.352,29.393 C10.352,29.393 10.352,29.393 10.440,29.393 L10.440,29.393 L23.252,37.836 C23.428,38.008 23.691,38.008 23.955,38.008 C24.218,38.008 24.393,37.922 24.657,37.836 L37.469,28.962 L37.469,28.962 C37.469,28.962 37.469,28.962 37.557,28.962 C37.557,28.962 37.645,28.962 37.645,28.876 C37.645,28.876 37.645,28.876 37.733,28.789 C37.733,28.789 37.733,28.789 37.820,28.703 C37.820,28.703 37.820,28.703 37.820,28.617 C37.820,28.617 37.820,28.531 37.908,28.531 C37.908,28.531 37.908,28.531 37.908,28.445 L37.908,28.359 C37.908,28.359 37.908,28.359 37.908,28.273 L37.908,28.186 C37.908,28.186 37.908,28.186 37.908,28.100 L37.908,28.014 C37.908,28.014 37.908,28.014 37.908,27.928 C37.908,27.842 37.908,27.842 37.908,27.756 L37.908,19.399 C37.996,19.571 37.996,19.485 37.996,19.399 ZM25.183,13.368 L34.661,19.571 L30.449,22.328 L25.183,18.882 L25.183,13.368 ZM22.726,13.368 L22.726,18.882 L17.460,22.328 L13.248,19.571 L22.726,13.368 ZM12.370,21.811 L15.354,23.792 L12.370,25.774 L12.370,21.811 ZM22.726,34.217 L13.336,28.014 L17.548,25.257 L22.814,28.703 L22.814,34.217 L22.726,34.217 ZM23.955,26.636 L19.654,23.792 L23.955,20.949 L28.255,23.792 L23.955,26.636 ZM25.183,34.217 L25.183,28.703 L30.449,25.257 L34.661,28.014 L25.183,34.217 ZM35.539,25.774 L32.555,23.792 L35.539,21.811 L35.539,25.774 Z" class="cls-2"/>
  </g>
</svg>
