<svg xmlns="http://www.w3.org/2000/svg" xmlns:xlink="http://www.w3.org/1999/xlink" preserveAspectRatio="xMidYMid" width="48" height="48" viewBox="0 0 48 48">
  <defs>
    <style>
      .cls-1 {
        fill: #8fa655;
      }

      .cls-2 {
        fill: #fff;
        fill-rule: evenodd;
      }
    </style>
  </defs>
  <g>
    <rect width="48" height="48" class="cls-1"/>
    <path d="M37.905,21.277 C37.905,20.195 37.470,13.615 37.470,13.615 C37.470,12.534 37.122,11.903 36.599,11.362 C36.164,10.911 35.468,10.460 34.424,10.460 C34.424,10.460 28.071,10.010 27.027,10.010 C25.461,10.010 24.504,9.919 22.589,11.993 C21.632,12.984 11.276,23.711 10.841,24.162 C10.406,24.612 8.927,26.415 11.450,29.029 L19.630,37.503 C22.154,40.117 23.894,38.584 24.329,38.134 C24.765,37.683 35.120,26.956 36.077,25.964 C37.992,23.891 37.905,22.810 37.905,21.277 ZM26.853,24.793 L30.421,26.505 L29.116,28.939 L25.809,26.686 C25.722,26.595 25.635,26.595 25.548,26.595 C25.461,26.595 25.374,26.595 25.287,26.686 C25.113,26.776 25.026,26.956 25.026,27.136 L25.287,31.193 L22.676,31.193 L22.676,31.193 L22.850,27.136 C22.850,26.956 22.763,26.776 22.589,26.686 C22.415,26.595 22.241,26.595 22.154,26.686 L19.108,28.939 L17.716,26.595 L21.284,24.793 C21.458,24.703 21.545,24.522 21.545,24.342 C21.545,24.162 21.458,23.981 21.284,23.891 L17.716,22.179 L19.021,19.745 L22.328,21.998 C22.502,22.088 22.676,22.088 22.763,21.998 C22.937,21.908 23.024,21.728 23.024,21.548 L22.763,17.491 L25.374,17.491 L25.200,21.548 C25.200,21.728 25.287,21.908 25.461,21.998 C25.635,22.088 25.809,22.088 25.896,21.998 L29.116,19.745 L30.508,22.088 L26.940,23.891 C26.766,23.981 26.679,24.162 26.679,24.342 C26.592,24.522 26.679,24.703 26.853,24.793 ZM32.945,17.041 C31.987,17.041 31.291,16.229 31.291,15.328 C31.291,14.336 32.074,13.615 32.945,13.615 C33.902,13.615 34.598,14.426 34.598,15.328 C34.598,16.319 33.815,17.041 32.945,17.041 Z" class="cls-2"/>
  </g>
</svg>
