<svg xmlns="http://www.w3.org/2000/svg" xmlns:xlink="http://www.w3.org/1999/xlink" preserveAspectRatio="xMidYMid" width="48" height="48" viewBox="0 0 48 48">
  <defs>
    <style>
      .cls-1 {
        fill: #000;
      }

      .cls-2 {
        fill: #fff;
        fill-rule: evenodd;
      }
    </style>
  </defs>
  <g>
    <rect width="48" height="48" class="cls-1"/>
    <path d="M18.330,16.367 C18.330,16.702 18.330,18.134 18.330,18.134 L20.793,18.134 C20.793,18.134 21.107,18.142 21.107,17.776 C21.107,17.440 21.109,16.008 21.109,16.008 L18.645,16.008 C18.645,16.008 18.330,16.000 18.330,16.367 ZM18.331,20.035 C18.331,20.369 18.331,29.591 18.331,29.591 L20.791,29.591 C20.791,29.591 21.106,29.599 21.106,29.233 C21.106,29.159 21.107,19.678 21.107,19.678 L18.645,19.678 C18.645,19.678 18.331,19.669 18.331,20.035 ZM14.715,16.367 L14.715,19.678 L10.315,19.678 C10.315,19.678 10.000,19.669 10.000,20.036 L10.000,29.591 L17.177,29.591 C17.177,29.591 17.491,29.599 17.491,29.233 C17.491,28.897 17.493,16.008 17.493,16.008 L15.030,16.008 C15.030,16.008 14.715,16.000 14.715,16.367 ZM14.716,27.104 C14.716,27.471 14.401,27.463 14.401,27.463 L12.721,27.463 L12.721,22.161 C12.721,21.794 13.036,21.802 13.036,21.802 L14.716,21.802 L14.716,27.104 ZM22.061,20.036 L22.061,29.591 L26.776,29.591 L26.776,30.866 L22.376,30.866 C22.376,30.866 22.061,30.858 22.061,31.224 C22.061,31.560 22.061,32.992 22.061,32.992 L29.239,32.992 C29.239,32.992 29.553,33.000 29.553,32.633 C29.553,32.298 29.554,19.684 29.554,19.684 L22.376,19.678 C22.376,19.678 22.061,19.669 22.061,20.036 ZM24.783,22.161 C24.783,21.794 25.097,21.802 25.097,21.802 L26.778,21.802 L26.778,27.104 C26.778,27.471 26.462,27.463 26.462,27.463 L24.783,27.463 L24.783,22.161 ZM30.822,19.678 C30.822,19.678 30.508,19.669 30.508,20.036 L30.508,29.591 L35.222,29.591 L35.222,30.866 L30.822,30.866 C30.822,30.866 30.508,30.858 30.508,31.224 C30.508,31.560 30.508,32.992 30.508,32.992 L37.684,32.992 C37.684,32.992 37.998,33.000 37.998,32.633 C37.998,32.298 38.000,19.684 38.000,19.684 L30.822,19.678 ZM35.223,27.104 C35.223,27.471 34.909,27.463 34.909,27.463 L33.228,27.463 L33.228,22.161 C33.228,21.794 33.543,21.802 33.543,21.802 L35.223,21.802 L35.223,27.104 Z" class="cls-2"/>
  </g>
</svg>
