<svg xmlns="http://www.w3.org/2000/svg" xmlns:xlink="http://www.w3.org/1999/xlink" preserveAspectRatio="xMidYMid" width="48" height="48" viewBox="0 0 48 48">
  <defs>
    <style>
      .cls-1 {
        fill: #d45a12;
      }

      .cls-2 {
        fill: #fff;
        fill-rule: evenodd;
      }
    </style>
  </defs>
  <g>
    <rect width="48" height="48" class="cls-1"/>
    <path d="M14.620,12.971 C14.605,12.637 14.738,12.366 15.207,12.366 C15.676,12.366 20.437,12.510 23.638,12.510 C30.276,12.510 31.869,12.000 33.009,12.000 C33.646,12.016 33.780,12.478 33.780,12.748 C33.780,13.019 33.478,13.592 33.478,14.341 C33.478,15.089 33.663,15.886 33.663,16.538 C33.663,17.191 33.076,17.414 32.757,17.414 C32.439,17.414 32.238,17.303 32.221,16.745 C32.187,15.679 33.009,14.134 24.946,14.134 C20.839,14.134 20.739,14.580 20.739,15.822 C20.739,17.064 20.772,21.172 20.772,21.809 C20.772,22.447 20.973,22.638 21.510,22.638 C22.046,22.638 26.253,22.638 27.393,22.638 C28.533,22.638 29.690,22.048 29.824,20.520 C29.874,19.708 30.109,19.676 30.528,19.676 C30.947,19.676 31.332,19.994 31.265,20.758 C31.198,21.523 31.031,22.335 31.031,23.434 C31.031,24.533 31.265,25.616 31.265,26.412 C31.265,27.208 30.159,27.399 29.941,26.539 C29.723,25.679 29.405,24.230 26.823,24.230 C24.242,24.230 22.163,24.230 21.593,24.230 C21.024,24.230 20.739,24.533 20.739,25.424 C20.739,26.316 20.739,30.679 20.739,31.778 C20.739,32.877 21.091,34.055 23.437,34.055 C25.784,34.055 30.042,34.294 31.986,32.845 C32.824,32.192 33.076,31.285 33.361,29.804 C33.495,29.119 35.054,29.135 34.987,30.711 C34.936,31.444 34.198,33.017 34.198,34.026 C34.198,34.870 34.401,36.000 33.579,36.000 C32.884,36.000 33.176,35.664 30.126,35.664 C27.075,35.664 16.548,35.728 14.788,35.728 C14.134,35.728 14.000,35.552 14.000,35.170 C14.000,34.788 14.235,34.501 14.788,34.501 C15.341,34.501 17.688,34.533 17.688,31.699 C17.688,28.864 17.688,18.497 17.688,16.968 C17.688,15.440 17.336,13.911 15.358,13.720 C14.587,13.656 14.637,13.338 14.620,12.971 Z" class="cls-2"/>
  </g>
</svg>
