<svg xmlns="http://www.w3.org/2000/svg" xmlns:xlink="http://www.w3.org/1999/xlink" preserveAspectRatio="xMidYMid" width="48" height="48" viewBox="0 0 48 48">
  <defs>
    <style>
      .cls-1 {
        fill: #7ac143;
      }

      .cls-2 {
        fill: #333;
        fill-rule: evenodd;
      }
    </style>
  </defs>
  <g>
    <rect width="48" height="48" class="cls-1"/>
    <path d="M34.943,26.097 C35.243,35.159 30.103,36.003 30.103,36.003 L27.590,35.984 C27.590,35.984 23.988,36.341 23.951,32.269 C23.988,29.286 27.927,29.493 27.927,29.493 L27.940,31.294 C27.940,31.294 25.839,30.956 25.939,32.419 C25.907,33.087 26.437,33.795 26.787,33.958 C28.254,33.958 28.262,33.974 29.378,33.983 C29.378,33.983 30.475,34.039 30.966,32.682 C30.985,32.457 30.966,32.645 30.966,30.356 C30.966,28.067 27.646,27.917 27.477,27.917 C25.789,28.048 23.951,25.402 23.951,25.402 C23.951,25.402 23.913,27.579 23.913,28.104 C23.425,30.693 18.536,29.755 18.523,29.755 C14.096,29.105 14.008,20.787 14.008,20.787 C14.008,20.787 13.946,19.136 15.284,17.973 C15.297,17.960 20.061,17.960 20.061,17.960 L20.987,16.922 C20.987,16.922 20.987,13.620 20.987,13.470 C20.987,12.194 21.437,12.044 23.125,12.006 C25.501,12.069 26.277,14.033 26.277,14.033 L29.203,14.033 C29.203,14.033 31.679,14.033 33.105,15.233 C34.193,16.096 35.206,20.887 34.943,26.097 ZM29.541,21.838 C28.640,21.838 28.228,23.489 28.228,23.489 L31.529,23.939 C31.529,23.939 30.441,21.838 29.541,21.838 ZM15.021,16.922 L19.974,12.006 L19.974,16.021 L18.961,16.922 L15.021,16.922 Z" class="cls-2"/>
  </g>
</svg>
