<svg xmlns="http://www.w3.org/2000/svg" xmlns:xlink="http://www.w3.org/1999/xlink" preserveAspectRatio="xMidYMid" width="48" height="48" viewBox="0 0 48 48">
  <defs>
    <style>
      .cls-1 {
        fill: #f84777;
      }

      .cls-2 {
        fill: #fff;
        fill-rule: evenodd;
      }
    </style>
  </defs>
  <g>
    <rect width="48" height="48" class="cls-1"/>
    <path d="M31.547,10.000 C31.547,10.000 18.713,10.000 16.659,10.000 C14.604,10.000 14.000,11.550 14.000,12.526 C14.000,13.503 14.000,36.253 14.000,36.253 C14.000,37.352 14.589,37.760 14.920,37.894 C15.251,38.029 16.164,38.142 16.712,37.509 C16.712,37.509 23.741,29.328 23.862,29.207 C24.044,29.024 24.044,29.024 24.227,29.024 C24.592,29.024 27.302,29.024 28.775,29.024 C30.686,29.024 30.993,27.657 31.193,26.852 C31.359,26.178 33.223,16.605 33.846,13.568 C34.321,11.250 33.734,10.000 31.547,10.000 ZM31.193,26.852 C31.359,26.178 33.223,16.605 33.846,13.568 M30.668,14.042 L30.043,17.309 C29.968,17.662 29.525,18.034 29.114,18.034 C28.703,18.034 23.314,18.034 23.314,18.034 C22.661,18.034 22.194,18.480 22.194,19.134 L22.194,19.846 C22.194,20.501 22.664,20.964 23.317,20.964 C23.317,20.964 27.778,20.964 28.238,20.964 C28.699,20.964 29.151,21.471 29.051,21.965 C28.951,22.459 28.484,24.907 28.427,25.177 C28.371,25.448 28.062,25.910 27.514,25.910 C27.053,25.910 23.498,25.910 23.498,25.910 C22.766,25.910 22.545,26.006 22.055,26.616 C21.566,27.226 17.164,32.528 17.164,32.528 C17.120,32.579 17.076,32.564 17.076,32.508 L17.076,13.994 C17.076,13.576 17.438,13.086 17.981,13.086 C17.981,13.086 29.463,13.086 29.930,13.086 C30.369,13.086 30.780,13.501 30.668,14.042 Z" class="cls-2"/>
  </g>
</svg>
