<svg xmlns="http://www.w3.org/2000/svg" xmlns:xlink="http://www.w3.org/1999/xlink" preserveAspectRatio="xMidYMid" width="48" height="48" viewBox="0 0 48 48">
  <defs>
    <style>
      .cls-1 {
        fill: #497fc0;
      }

      .cls-2 {
        fill: #fff;
        fill-rule: evenodd;
      }
    </style>
  </defs>
  <g>
    <rect width="48" height="48" class="cls-1"/>
    <path d="M26.030,20.008 L26.030,21.843 L24.620,21.843 L22.684,21.843 L20.747,21.843 L20.747,20.008 C20.747,18.828 21.456,17.964 22.091,17.964 L24.803,17.964 L24.803,14.013 L22.091,14.013 C19.214,14.013 16.873,16.702 16.873,20.008 L16.873,21.843 L13.000,21.843 L13.000,25.838 L16.873,25.838 L16.873,36.013 L20.747,36.013 L20.747,25.838 L22.684,25.838 L24.620,25.838 L26.030,25.838 L26.030,36.013 L29.903,36.013 L29.903,25.838 L33.777,25.838 L33.777,21.843 L29.903,21.843 L29.903,20.008 C29.903,18.828 30.612,17.964 31.248,17.964 L34.000,17.964 L34.000,14.013 L31.248,14.013 C28.370,14.013 26.030,16.702 26.030,20.008 Z" class="cls-2"/>
  </g>
</svg>
