<svg xmlns="http://www.w3.org/2000/svg" xmlns:xlink="http://www.w3.org/1999/xlink" preserveAspectRatio="xMidYMid" width="48" height="48" viewBox="0 0 48 48">
  <defs>
    <style>
      .cls-1 {
        fill: #3eabbb;
      }

      .cls-2 {
        fill: #fff;
        fill-rule: evenodd;
      }
    </style>
  </defs>
  <g>
    <rect width="48" height="48" class="cls-1"/>
    <path d="M13.126,10.000 L13.399,10.255 L13.431,10.288 L13.447,10.288 L26.795,23.420 L28.210,22.034 L30.252,20.028 L30.429,19.869 L24.800,16.639 L13.271,10.048 C13.256,10.039 13.238,10.040 13.222,10.033 C13.190,10.015 13.157,10.014 13.126,10.000 ZM12.162,10.127 C12.065,10.256 12.000,10.438 12.000,10.669 L12.000,23.961 L12.000,37.507 C12.000,37.651 12.031,37.774 12.081,37.872 L12.097,37.858 L12.113,37.858 L12.290,37.666 L26.248,23.945 L26.135,23.833 L26.120,23.833 L26.071,23.802 L12.370,10.319 L12.226,10.175 L12.161,10.127 L12.162,10.127 ZM31.120,20.251 L31.040,20.331 L31.024,20.331 L30.895,20.475 L29.255,22.082 L27.503,23.802 L27.469,23.818 L27.469,23.833 L27.341,23.945 L30.895,27.446 L31.024,27.590 L31.040,27.590 L31.120,27.669 L36.508,24.582 C37.097,24.244 37.132,23.793 36.748,23.483 C36.721,23.460 36.684,23.440 36.652,23.420 L36.555,23.355 C36.023,23.072 31.716,20.593 31.120,20.251 ZM26.795,24.486 L13.431,37.618 L13.415,37.634 L13.030,38.000 C13.619,37.663 24.800,31.283 24.800,31.283 L30.429,28.051 L30.252,27.892 L26.795,24.486 Z" class="cls-2"/>
  </g>
</svg>
