<svg xmlns="http://www.w3.org/2000/svg" xmlns:xlink="http://www.w3.org/1999/xlink" preserveAspectRatio="xMidYMid" width="48" height="48" viewBox="0 0 48 48">
  <defs>
    <style>
      .cls-1 {
        fill: #4779bd;
      }

      .cls-2 {
        fill: #fff;
        fill-rule: evenodd;
      }
    </style>
  </defs>
  <g>
    <rect width="48" height="48" class="cls-1"/>
    <path d="M20.392,30.657 C21.732,30.657 22.701,30.214 23.673,29.245 C23.275,28.730 22.838,28.229 22.429,27.716 C21.869,28.286 21.253,28.645 20.460,28.645 C19.488,28.645 18.655,27.973 18.655,26.916 C18.655,25.875 19.490,25.189 20.433,25.189 C23.442,25.189 24.084,30.675 28.459,30.675 C30.593,30.675 32.396,29.273 32.396,26.932 C32.396,24.560 30.578,23.173 28.419,23.173 C27.078,23.173 26.082,23.574 25.125,24.560 C25.562,25.059 25.971,25.588 26.396,26.104 C26.943,25.545 27.558,25.189 28.337,25.189 C29.240,25.189 30.140,25.861 30.140,26.861 C30.140,27.961 29.373,28.659 28.351,28.659 C25.439,28.659 24.660,23.173 20.393,23.173 C18.274,23.173 16.402,24.530 16.402,26.888 C16.398,29.300 18.216,30.657 20.392,30.657 ZM38.000,28.329 C38.000,31.457 35.525,34.000 32.490,34.000 C32.382,34.000 32.285,33.986 32.189,33.986 L15.551,33.986 C12.488,33.800 10.000,31.357 10.000,28.186 C10.000,26.057 11.107,24.199 12.762,23.187 C12.653,22.815 12.597,22.430 12.597,22.014 C12.597,19.829 14.307,18.057 16.439,18.057 C17.314,18.057 18.134,18.371 18.790,18.886 C20.131,16.000 22.975,14.000 26.297,14.000 C30.904,14.000 34.623,17.843 34.623,22.571 C34.623,22.744 34.609,22.916 34.609,23.086 C36.592,23.943 38.000,25.971 38.000,28.329 Z" class="cls-2"/>
  </g>
</svg>
