<svg xmlns="http://www.w3.org/2000/svg" xmlns:xlink="http://www.w3.org/1999/xlink" preserveAspectRatio="xMidYMid" width="48" height="48" viewBox="0 0 48 48">
  <defs>
    <style>
      .cls-1 {
        fill: #0f2104;
      }

      .cls-2 {
        fill: #2bde73;
        fill-rule: evenodd;
      }
    </style>
  </defs>
  <g>
    <rect width="48" height="48" class="cls-1"/>
    <path d="M21.653,20.179 L25.973,13.802 C26.789,12.601 27.843,12.000 29.136,12.000 C30.191,12.000 31.103,12.381 31.874,13.144 C32.645,13.906 33.031,14.819 33.031,15.881 C33.031,16.667 32.827,17.360 32.419,17.961 L28.524,23.731 L33.286,29.883 C33.762,30.495 34.000,31.212 34.000,32.032 C34.000,33.118 33.626,34.051 32.878,34.830 C32.129,35.611 31.222,36.000 30.157,36.000 C28.989,36.000 28.099,35.613 27.486,34.839 L21.653,27.423 L21.653,31.512 C21.653,32.679 21.455,33.586 21.058,34.233 C20.332,35.411 19.278,36.000 17.895,36.000 C16.636,36.000 15.661,35.567 14.969,34.701 C14.323,33.903 14.000,32.846 14.000,31.530 L14.000,16.367 C14.000,15.119 14.328,14.091 14.986,13.282 C15.678,12.428 16.630,12.000 17.843,12.000 C19.000,12.000 19.963,12.428 20.735,13.282 C21.165,13.756 21.437,14.235 21.551,14.721 C21.619,15.021 21.653,15.581 21.653,16.401 L21.653,20.179 " class="cls-2"/>
  </g>
</svg>
