<svg xmlns="http://www.w3.org/2000/svg" xmlns:xlink="http://www.w3.org/1999/xlink" preserveAspectRatio="xMidYMid" width="48" height="48" viewBox="0 0 48 48">
  <defs>
    <style>
      .cls-1 {
        fill: #de1600;
      }

      .cls-2 {
        fill: #fff;
        fill-rule: evenodd;
      }
    </style>
  </defs>
  <g>
    <rect width="48" height="48" class="cls-1"/>
    <path d="M26.868,28.875 L26.559,28.176 L23.894,21.991 C23.011,19.802 20.819,18.324 18.345,18.324 C14.997,18.324 12.282,21.088 12.282,24.499 C12.282,27.908 14.997,30.675 18.345,30.675 C20.680,30.675 22.710,29.329 23.723,27.359 L24.801,29.890 C23.271,31.790 20.947,32.999 18.345,32.999 C13.735,32.999 9.998,29.196 9.998,24.499 C9.998,19.803 13.735,15.997 18.345,15.997 C21.824,15.997 24.633,17.889 26.060,21.242 C26.169,21.502 27.571,24.838 28.793,27.677 C29.549,29.433 30.194,30.601 32.288,30.672 C34.343,30.743 35.756,29.471 35.756,27.857 C35.756,26.283 34.679,25.905 32.863,25.289 C29.596,24.194 27.910,23.094 27.910,20.456 C27.910,17.884 29.628,16.168 32.423,16.168 C34.241,16.168 35.555,16.993 36.465,18.636 L34.679,19.565 C34.007,18.607 33.265,18.228 32.322,18.228 C31.010,18.228 30.075,19.157 30.075,20.392 C30.075,22.145 31.615,22.410 33.769,23.128 C36.667,24.089 38.015,25.188 38.015,27.929 C38.015,30.809 35.589,32.907 32.423,32.901 C29.503,32.889 27.948,31.436 26.868,28.875 Z" class="cls-2"/>
  </g>
</svg>
