<svg xmlns="http://www.w3.org/2000/svg" xmlns:xlink="http://www.w3.org/1999/xlink" preserveAspectRatio="xMidYMid" width="48" height="48" viewBox="0 0 48 48">
  <defs>
    <style>
      .cls-1 {
        fill: #e51937;
      }

      .cls-2 {
        fill: #fff;
        fill-rule: evenodd;
      }
    </style>
  </defs>
  <g>
    <rect width="48" height="48" class="cls-1"/>
    <path d="M38.004,35.282 C36.715,31.931 35.880,28.132 35.078,24.413 C34.040,19.634 32.971,14.782 31.155,10.995 C30.940,11.014 30.726,11.202 30.521,11.202 C29.880,11.202 29.321,11.345 28.763,11.261 C28.233,11.173 27.701,11.690 27.074,11.690 C27.017,11.690 26.953,11.690 26.895,11.690 C26.732,11.690 26.585,11.089 26.514,11.045 C23.619,14.741 22.624,19.731 21.315,24.791 C20.591,23.592 19.928,22.363 19.271,21.104 C18.110,18.893 16.909,16.621 15.549,14.801 C15.167,14.771 14.796,14.769 14.441,14.769 C12.882,14.769 11.468,15.033 10.139,15.398 L10.071,18.795 C9.925,24.626 9.801,29.661 11.358,34.415 C11.647,34.460 11.942,34.483 12.234,34.483 C14.100,34.483 15.751,33.623 16.467,33.278 C16.582,31.786 16.385,30.623 16.183,29.387 C16.075,28.754 15.965,28.116 16.320,27.287 C17.402,28.612 18.354,30.067 19.302,31.519 C19.905,32.439 20.509,33.355 20.971,34.146 C21.283,34.176 21.578,34.189 21.860,34.189 C22.589,34.189 23.234,34.103 23.876,34.021 C24.545,33.936 25.207,33.856 25.964,33.856 L26.393,34.003 C27.251,32.206 27.297,29.563 27.342,27.003 C27.382,24.656 27.427,22.232 28.532,20.425 C29.738,25.671 31.382,30.768 33.547,35.998 C34.308,35.899 35.152,35.653 35.932,35.425 C36.513,35.255 37.039,35.094 37.456,35.094 C37.668,35.094 37.853,35.182 38.004,35.282 Z" class="cls-2"/>
  </g>
</svg>
