<svg xmlns="http://www.w3.org/2000/svg" xmlns:xlink="http://www.w3.org/1999/xlink" preserveAspectRatio="xMidYMid" width="48" height="48" viewBox="0 0 48 48">
  <defs>
    <style>
      .cls-1 {
        fill: #4a5d5f;
      }

      .cls-2 {
        fill: #fff;
        fill-rule: evenodd;
      }
    </style>
  </defs>
  <g>
    <rect width="48" height="48" class="cls-1"/>
    <path d="M37.210,28.586 C36.989,28.586 31.336,28.586 31.048,28.586 C31.048,28.287 31.048,13.005 31.048,12.448 C35.204,14.987 38.003,19.536 38.003,24.408 C38.003,25.978 37.731,27.093 37.210,28.586 ZM23.867,10.003 C25.867,10.003 28.022,10.429 29.844,11.259 C29.844,11.457 29.844,19.964 29.844,20.608 C29.367,20.173 19.359,11.253 18.990,10.917 C20.565,10.325 22.202,10.003 23.867,10.003 ZM10.504,27.803 C10.178,26.589 9.996,25.365 9.996,24.161 C9.996,18.874 12.908,14.111 17.597,11.695 C17.757,11.840 22.646,16.296 22.882,16.511 C22.640,16.732 10.882,27.456 10.504,27.803 ZM17.011,36.217 C14.404,34.634 12.215,32.172 11.095,29.354 C11.256,29.207 16.545,24.515 17.011,24.089 C17.011,24.735 17.011,35.669 17.011,36.217 ZM25.120,38.000 L22.559,38.000 C21.030,37.857 19.545,37.461 18.125,36.821 C18.125,36.621 18.125,30.131 18.125,29.840 C18.425,29.840 35.997,29.840 36.501,29.840 C34.361,34.272 29.945,37.549 25.120,38.000 Z" class="cls-2"/>
  </g>
</svg>
