<svg xmlns="http://www.w3.org/2000/svg" xmlns:xlink="http://www.w3.org/1999/xlink" preserveAspectRatio="xMidYMid" width="48" height="48" viewBox="0 0 48 48">
  <defs>
    <style>
      .cls-1 {
        fill: #f40;
      }

      .cls-2 {
        fill: #fff;
        fill-rule: evenodd;
      }
    </style>
  </defs>
  <g>
    <rect width="48" height="48" class="cls-1"/>
    <path d="M38.469,20.427 C37.967,19.907 36.872,19.230 35.568,19.230 C34.181,19.302 33.788,19.549 32.797,20.312 C30.673,19.061 27.973,18.288 25.021,18.138 C24.993,17.316 25.017,13.258 28.310,13.721 C29.194,13.730 30.142,14.208 30.599,14.471 C30.596,14.528 30.582,14.583 30.582,14.641 C30.582,16.538 32.132,18.076 34.044,18.076 C35.957,18.076 37.507,16.538 37.507,14.641 C37.507,12.743 35.957,11.205 34.044,11.205 C32.712,11.205 31.569,11.961 30.990,13.055 C30.727,12.912 29.756,12.427 28.310,12.233 C23.609,11.669 23.445,16.979 23.462,18.094 C20.324,18.186 17.465,19.012 15.234,20.338 C15.178,20.283 14.115,19.248 12.468,19.248 C11.156,19.338 10.260,19.770 9.531,20.442 C8.813,21.252 8.356,22.141 8.464,23.522 C8.764,25.352 10.365,26.205 10.614,26.328 C10.552,26.692 10.511,27.060 10.511,27.435 C10.511,32.604 16.566,36.794 24.036,36.794 C31.506,36.794 37.561,32.604 37.561,27.435 C37.561,27.041 37.514,26.654 37.446,26.273 C37.461,26.292 37.480,26.317 37.480,26.317 C37.905,26.065 39.427,25.040 39.572,23.522 C39.644,21.788 39.108,21.093 38.469,20.427 ZM37.029,24.802 C36.373,23.396 35.370,22.187 34.162,21.196 C34.576,20.836 35.075,20.709 35.731,20.745 C36.567,20.799 37.931,21.521 37.949,22.873 C37.949,24.008 37.432,24.550 37.029,24.802 ZM24.090,35.226 C17.562,35.226 12.269,31.726 12.269,27.408 C12.269,23.091 17.562,19.591 24.090,19.591 C30.619,19.591 35.911,23.091 35.911,27.408 C35.911,31.726 30.619,35.226 24.090,35.226 ZM19.167,24.000 C18.136,24.000 17.301,24.836 17.301,25.866 C17.301,26.897 18.136,27.733 19.167,27.733 C20.198,27.733 21.034,26.897 21.034,25.866 C21.034,24.836 20.198,24.000 19.167,24.000 ZM19.573,30.411 C18.617,29.689 17.824,30.799 18.491,31.466 C20.948,33.706 27.787,33.639 29.500,31.520 C30.173,30.847 29.454,29.636 28.553,30.384 C26.953,31.971 21.376,32.214 19.573,30.411 ZM28.878,24.000 C27.847,24.000 27.011,24.836 27.011,25.866 C27.011,26.897 27.847,27.733 28.878,27.733 C29.909,27.733 30.744,26.897 30.744,25.866 C30.744,24.836 29.909,24.000 28.878,24.000 ZM11.061,24.802 C10.689,24.586 10.123,24.164 10.141,22.855 C10.141,21.690 11.464,20.763 12.287,20.763 C12.863,20.745 13.622,20.896 13.892,21.214 C13.207,21.604 11.470,23.504 11.061,24.802 ZM34.017,12.639 C35.108,12.639 35.992,13.499 35.992,14.560 C35.992,15.620 35.108,16.480 34.017,16.480 C32.927,16.480 32.043,15.620 32.043,14.560 C32.043,13.499 32.927,12.639 34.017,12.639 Z" class="cls-2"/>
  </g>
</svg>
