<svg xmlns="http://www.w3.org/2000/svg" xmlns:xlink="http://www.w3.org/1999/xlink" preserveAspectRatio="xMidYMid" width="48" height="48" viewBox="0 0 48 48">
  <defs>
    <style>
      .cls-1 {
        fill: #008850;
      }

      .cls-2 {
        fill: #fff;
        fill-rule: evenodd;
      }
    </style>
  </defs>
  <g>
    <rect width="48" height="48" class="cls-1"/>
    <path d="M31.765,27.527 C30.724,27.527 29.782,27.916 29.046,28.540 L20.447,24.242 C20.452,24.159 20.470,24.082 20.470,24.000 C20.470,23.916 20.452,23.838 20.447,23.756 L29.046,19.456 C29.782,20.079 30.723,20.470 31.765,20.470 C34.104,20.470 36.000,18.574 36.000,16.233 C36.000,13.896 34.104,12.000 31.765,12.000 C29.425,12.000 27.530,13.896 27.530,16.233 C27.530,16.317 27.550,16.395 27.554,16.477 L18.954,20.775 C18.217,20.154 17.276,19.763 16.235,19.763 C13.896,19.763 12.000,21.659 12.000,24.000 C12.000,26.339 13.896,28.233 16.235,28.233 C17.276,28.233 18.216,27.844 18.954,27.223 L27.554,31.521 C27.550,31.603 27.530,31.678 27.530,31.763 C27.530,34.104 29.425,36.000 31.765,36.000 C34.104,36.000 36.000,34.104 36.000,31.763 C36.000,29.423 34.104,27.527 31.765,27.527 Z" class="cls-2"/>
  </g>
</svg>
