<svg xmlns="http://www.w3.org/2000/svg" xmlns:xlink="http://www.w3.org/1999/xlink" preserveAspectRatio="xMidYMid" width="48" height="48" viewBox="0 0 48 48">
  <defs>
    <style>
      .cls-1 {
        fill: #00aff0;
      }

      .cls-2 {
        fill: #fff;
        fill-rule: evenodd;
      }
    </style>
  </defs>
  <g>
    <rect width="48" height="48" class="cls-1"/>
    <path d="M37.579,25.829 C37.662,25.251 37.709,24.664 37.709,24.066 C37.709,16.891 31.537,11.074 23.924,11.074 C23.168,11.074 22.426,11.133 21.704,11.246 C20.410,10.446 18.870,9.981 17.212,9.981 C12.667,9.981 8.987,13.470 8.987,17.775 C8.987,19.341 9.473,20.796 10.311,22.018 C10.198,22.686 10.141,23.369 10.141,24.066 C10.141,31.241 16.310,37.058 23.924,37.058 C24.784,37.058 25.620,36.979 26.434,36.840 C27.697,37.582 29.186,38.014 30.781,38.014 C35.325,38.014 39.007,34.524 39.007,30.220 C39.007,28.592 38.482,27.080 37.579,25.829 ZM25.213,33.641 C20.832,33.857 18.783,32.939 16.905,31.269 C14.808,29.404 15.650,27.278 17.359,27.169 C19.066,27.062 20.092,29.003 21.003,29.543 C21.913,30.082 25.377,31.308 27.206,29.326 C29.198,27.169 25.881,26.054 23.450,25.716 C19.979,25.229 15.596,23.450 15.937,19.944 C16.278,16.440 19.079,14.643 22.026,14.390 C25.783,14.067 28.229,14.929 30.164,16.493 C32.401,18.300 31.190,20.320 29.765,20.483 C28.345,20.644 26.751,17.511 23.621,17.464 C20.394,17.416 18.214,20.644 22.197,21.562 C26.182,22.479 30.449,22.856 31.986,26.307 C33.524,29.759 29.597,33.425 25.213,33.641 Z" class="cls-2"/>
  </g>
</svg>
