<svg xmlns="http://www.w3.org/2000/svg" xmlns:xlink="http://www.w3.org/1999/xlink" preserveAspectRatio="xMidYMid" width="48" height="48" viewBox="0 0 48 48">
  <defs>
    <style>
      .cls-1 {
        fill: #ff5300;
      }

      .cls-2 {
        fill: #fff;
        fill-rule: evenodd;
      }
    </style>
  </defs>
  <g>
    <rect width="48" height="48" class="cls-1"/>
    <path d="M5.430,25.963 C5.351,25.963 5.288,26.037 5.278,26.144 L5.000,28.702 L5.278,31.218 C5.288,31.324 5.351,31.398 5.430,31.398 C5.507,31.398 5.570,31.324 5.582,31.219 L5.582,31.219 L5.582,31.218 C5.582,31.218 5.582,31.218 5.582,31.219 L5.911,28.702 L5.582,26.143 C5.570,26.037 5.507,25.963 5.430,25.963 ZM6.993,24.565 C6.980,24.455 6.915,24.379 6.835,24.379 C6.755,24.379 6.688,24.457 6.677,24.565 C6.677,24.566 6.303,28.702 6.303,28.702 L6.677,32.749 C6.687,32.857 6.754,32.935 6.835,32.935 C6.915,32.935 6.980,32.859 6.993,32.750 L7.418,28.702 L6.993,24.565 ZM12.880,20.748 C12.727,20.748 12.600,20.900 12.592,21.094 L12.295,28.706 L12.592,33.626 C12.600,33.818 12.727,33.970 12.880,33.970 C13.032,33.970 13.158,33.817 13.167,33.625 L13.167,33.626 L13.504,28.706 L13.167,21.094 C13.158,20.900 13.032,20.748 12.880,20.748 ZM9.833,23.394 C9.715,23.394 9.619,23.508 9.610,23.660 L9.275,28.704 L9.610,33.584 C9.619,33.735 9.715,33.849 9.833,33.849 C9.949,33.849 10.045,33.735 10.056,33.584 L10.437,28.704 L10.056,23.659 C10.045,23.508 9.949,23.394 9.833,23.394 ZM15.976,33.969 C16.165,33.969 16.320,33.783 16.328,33.545 L16.620,28.708 L16.328,18.573 C16.321,18.336 16.166,18.150 15.976,18.150 C15.784,18.150 15.630,18.336 15.624,18.574 C15.624,18.575 15.364,28.708 15.364,28.708 L15.624,33.547 C15.630,33.783 15.784,33.969 15.976,33.969 ZM22.314,33.992 C22.576,33.992 22.792,33.731 22.796,33.410 L22.796,33.413 L22.796,33.410 L23.000,28.712 L22.796,17.006 C22.792,16.686 22.576,16.424 22.314,16.424 C22.052,16.424 21.836,16.685 21.832,17.007 L21.650,28.707 C21.650,28.715 21.832,33.412 21.832,33.412 C21.836,33.731 22.052,33.992 22.314,33.992 ZM19.121,33.974 C19.348,33.974 19.532,33.752 19.538,33.469 L19.538,33.473 L19.786,28.709 L19.538,18.501 C19.531,18.219 19.348,17.998 19.120,17.998 C18.891,17.998 18.708,18.219 18.702,18.501 L18.483,28.710 L18.703,33.472 C18.708,33.752 18.892,33.974 19.121,33.974 ZM11.350,33.929 C11.486,33.929 11.595,33.798 11.605,33.625 L11.964,28.704 L11.605,24.023 C11.595,23.850 11.486,23.720 11.350,23.720 C11.213,23.720 11.103,23.851 11.095,24.025 L10.779,28.704 L11.095,33.624 C11.104,33.798 11.213,33.929 11.350,33.929 ZM8.328,33.659 C8.427,33.659 8.507,33.565 8.518,33.434 L8.921,28.703 L8.518,23.794 C8.507,23.662 8.427,23.568 8.328,23.568 C8.228,23.568 8.148,23.663 8.137,23.794 C8.137,23.794 7.783,28.703 7.783,28.703 L8.137,33.433 C8.147,33.564 8.227,33.659 8.328,33.659 ZM20.711,18.331 C20.464,18.331 20.266,18.569 20.261,18.875 L20.060,28.710 L20.261,33.443 C20.266,33.744 20.464,33.983 20.711,33.983 C20.958,33.983 21.155,33.745 21.161,33.440 L21.161,33.444 L21.386,28.711 L21.161,18.874 C21.155,18.569 20.958,18.331 20.711,18.331 ZM14.422,33.979 C14.593,33.979 14.734,33.810 14.742,33.594 L15.056,28.707 L14.742,19.354 C14.733,19.138 14.593,18.969 14.422,18.969 C14.249,18.969 14.109,19.138 14.101,19.354 C14.101,19.354 13.824,28.707 13.824,28.707 L14.102,33.596 C14.109,33.810 14.249,33.979 14.422,33.979 ZM17.927,33.518 L17.927,33.515 L18.196,28.709 L17.927,18.232 C17.920,17.972 17.751,17.768 17.542,17.768 C17.332,17.768 17.163,17.972 17.157,18.232 L16.918,28.708 L17.158,33.517 C17.163,33.775 17.332,33.979 17.542,33.979 C17.751,33.979 17.919,33.775 17.927,33.516 L17.927,33.518 ZM38.327,22.670 C37.686,22.670 37.075,22.827 36.519,23.110 C36.147,18.003 32.614,13.996 28.305,13.996 C27.251,13.996 26.223,14.248 25.315,14.674 C24.963,14.839 24.869,15.009 24.865,15.340 L24.865,33.326 C24.869,33.673 25.091,33.962 25.370,33.996 C25.382,33.997 38.243,34.005 38.326,34.005 C40.907,34.005 43.000,31.468 43.000,28.338 C43.000,25.208 40.908,22.670 38.327,22.670 ZM23.910,15.324 C23.629,15.324 23.399,15.604 23.395,15.947 L23.184,28.713 L23.395,33.347 C23.399,33.684 23.629,33.964 23.910,33.964 C24.190,33.964 24.420,33.684 24.424,33.341 L24.424,33.347 L24.654,28.713 L24.425,15.946 C24.420,15.604 24.190,15.324 23.910,15.324 Z" class="cls-2"/>
  </g>
</svg>
