<svg xmlns="http://www.w3.org/2000/svg" xmlns:xlink="http://www.w3.org/1999/xlink" preserveAspectRatio="xMidYMid" width="48" height="48" viewBox="0 0 48 48">
  <defs>
    <style>
      .cls-1 {
        fill: #ea4b24;
      }

      .cls-2 {
        fill: #fff;
        fill-rule: evenodd;
      }
    </style>
  </defs>
  <g>
    <rect width="48" height="48" class="cls-1"/>
    <path d="M24.000,19.048 C23.299,19.048 22.981,19.606 22.981,20.294 L22.975,27.806 C22.933,30.679 20.305,32.996 17.371,32.996 C14.410,32.996 12.011,30.639 12.011,27.731 C12.011,27.693 12.011,24.014 12.011,24.014 L15.963,24.014 L15.963,27.688 C15.963,28.376 16.681,28.934 17.382,28.934 C18.082,28.934 18.951,28.376 18.951,27.688 L18.951,20.082 C19.054,17.263 21.165,15.007 24.060,15.007 C26.965,15.007 28.898,17.280 28.985,20.113 L28.985,21.778 L27.157,22.937 L25.087,21.744 L25.087,20.294 C25.087,19.606 24.700,19.048 24.000,19.048 ZM30.628,32.996 C27.684,32.996 25.094,30.664 25.068,27.777 L25.068,24.078 L26.907,25.495 L28.999,23.990 L28.999,27.838 C28.999,28.527 29.917,29.135 30.617,29.135 C31.318,29.135 31.986,28.527 31.986,27.838 L31.986,23.964 L35.988,23.964 C35.988,23.964 35.988,27.693 35.988,27.731 C35.988,30.639 33.589,32.996 30.628,32.996 Z" class="cls-2"/>
  </g>
</svg>
