<svg xmlns="http://www.w3.org/2000/svg" xmlns:xlink="http://www.w3.org/1999/xlink" preserveAspectRatio="xMidYMid" width="48" height="48" viewBox="0 0 48 48">
  <defs>
    <style>
      .cls-1 {
        fill: #640f6c;
      }

      .cls-2 {
        fill: #fff;
        fill-rule: evenodd;
      }
    </style>
  </defs>
  <g>
    <rect width="48" height="48" class="cls-1"/>
    <path d="M24.497,27.275 L24.497,31.053 L28.091,31.043 L28.081,31.995 L21.743,31.995 L16.029,31.995 L16.029,31.032 L19.676,31.043 L19.676,27.286 L14.159,17.857 L10.014,17.868 L10.014,16.005 L22.034,16.005 L22.045,17.857 L18.990,17.857 L23.011,24.736 L27.302,19.783 L24.507,19.783 L24.497,17.857 L35.353,17.868 L35.353,19.772 L30.938,19.772 L24.497,27.275 ZM38.986,21.619 L37.748,28.233 L34.155,28.242 L34.164,21.619 L38.986,21.619 ZM37.766,31.972 L34.155,31.972 L34.155,29.194 L37.766,29.185 L37.766,31.972 Z" class="cls-2"/>
  </g>
</svg>
