<svg xmlns="http://www.w3.org/2000/svg" xmlns:xlink="http://www.w3.org/1999/xlink" preserveAspectRatio="xMidYMid" width="48" height="48" viewBox="0 0 48 48">
  <defs>
    <style>
      .cls-1 {
        fill: #2b8adf;
      }

      .cls-2 {
        fill: #fff;
        fill-rule: evenodd;
      }
    </style>
  </defs>
  <g>
    <rect width="48" height="48" class="cls-1"/>
    <path d="M38.708,21.500 C38.425,20.563 37.953,19.812 37.293,19.156 C36.727,18.500 35.973,17.938 35.030,17.562 C34.181,17.188 33.144,17.000 32.107,17.000 C31.258,17.000 30.409,17.094 29.655,17.375 C28.900,17.656 28.240,18.031 27.580,18.500 C26.920,18.969 26.354,19.438 25.788,20.094 C25.222,20.656 24.656,21.312 24.185,21.969 C23.619,21.312 23.148,20.750 22.582,20.094 C22.016,19.531 21.450,18.969 20.790,18.500 C20.130,18.031 19.470,17.656 18.715,17.375 C17.772,17.094 17.018,17.000 16.075,17.000 C15.037,17.000 14.000,17.188 13.151,17.562 C12.208,17.938 11.548,18.406 10.888,19.156 C10.322,19.812 9.851,20.563 9.473,21.500 C9.190,22.437 9.002,23.375 9.002,24.406 C9.002,25.438 9.190,26.469 9.473,27.406 C9.756,28.344 10.228,29.094 10.888,29.844 C11.454,30.500 12.208,31.063 13.151,31.437 C14.000,31.812 15.037,32.000 16.169,32.000 C17.018,32.000 17.772,31.906 18.527,31.625 C19.281,31.344 19.941,31.063 20.601,30.594 C21.261,30.219 21.827,29.656 22.393,29.094 C22.959,28.531 23.525,27.969 23.996,27.406 C24.562,27.969 25.034,28.625 25.599,29.094 C26.165,29.656 26.825,30.125 27.391,30.594 C28.051,31.063 28.712,31.344 29.466,31.625 C30.220,31.906 30.975,32.000 31.824,32.000 C32.955,32.000 33.898,31.812 34.841,31.437 C35.690,31.063 36.444,30.500 37.105,29.844 C37.670,29.187 38.142,28.344 38.519,27.406 C38.802,26.469 38.991,25.531 38.991,24.406 C38.991,23.281 38.991,22.344 38.708,21.500 ZM20.507,25.812 C20.130,26.188 19.658,26.563 19.187,26.844 C18.715,27.125 18.244,27.406 17.678,27.594 C17.206,27.781 16.641,27.875 16.075,27.875 C15.037,27.875 14.283,27.594 13.717,26.937 C13.151,26.281 12.868,25.438 12.868,24.500 C12.868,23.562 13.151,22.719 13.717,22.062 C14.283,21.406 15.132,21.031 16.169,21.031 C16.735,21.031 17.206,21.125 17.772,21.406 C18.244,21.594 18.715,21.969 19.187,22.250 C19.658,22.625 20.035,23.000 20.507,23.375 C20.884,23.844 21.261,24.219 21.639,24.500 C21.261,24.969 20.884,25.438 20.507,25.812 ZM34.464,26.937 C33.898,27.594 33.144,27.875 32.107,27.875 C31.541,27.875 30.975,27.781 30.503,27.594 C30.032,27.406 29.466,27.125 28.994,26.844 C28.523,26.563 28.051,26.188 27.674,25.812 C27.297,25.438 26.920,25.063 26.542,24.594 C26.825,24.219 27.203,23.844 27.674,23.469 C28.051,23.094 28.523,22.625 28.994,22.344 C29.466,21.969 29.937,21.688 30.409,21.500 C30.881,21.312 31.446,21.125 32.012,21.125 C33.050,21.125 33.804,21.500 34.464,22.156 C35.030,22.813 35.313,23.656 35.313,24.594 C35.313,25.438 35.030,26.281 34.464,26.937 Z" class="cls-2"/>
  </g>
</svg>
