<svg xmlns="http://www.w3.org/2000/svg" xmlns:xlink="http://www.w3.org/1999/xlink" preserveAspectRatio="xMidYMid" width="48" height="48" viewBox="0 0 48 48">
  <defs>
    <style>
      .cls-1 {
        fill: #f0cb08;
      }

      .cls-2 {
        fill: #27230c;
      }

      .cls-2, .cls-3 {
        fill-rule: evenodd;
      }

      .cls-3 {
        fill: #fff;
      }
    </style>
  </defs>
  <g>
    <rect width="48" height="48" class="cls-1"/>
    <path d="M35.256,25.475 C35.050,25.689 33.630,27.107 31.438,27.874 C32.764,29.005 34.039,30.499 35.008,32.551 C35.135,32.820 35.201,33.112 35.201,33.409 C35.201,34.548 34.718,34.927 31.578,37.391 L31.384,37.543 C31.074,37.800 30.689,37.963 30.272,37.995 C30.221,37.999 30.169,38.001 30.118,38.001 C29.398,38.001 28.729,37.608 28.378,36.968 C27.272,34.953 26.434,33.818 24.870,33.087 C23.350,34.800 21.083,36.656 17.211,37.884 C17.013,37.947 16.811,37.976 16.613,37.976 C15.849,37.976 15.129,37.532 14.801,36.798 C12.977,32.731 12.977,32.731 12.977,32.293 C12.977,31.361 13.618,30.552 14.523,30.344 C16.786,29.825 17.350,29.444 18.553,27.283 C18.521,24.907 18.928,20.148 22.383,17.829 C22.483,17.761 22.589,17.704 22.698,17.656 C22.400,16.980 22.234,16.231 22.234,15.444 C22.234,12.442 24.648,9.999 27.615,9.999 C30.581,9.999 32.995,12.442 32.995,15.444 C32.995,16.891 32.435,18.207 31.523,19.183 C31.705,19.129 31.897,19.100 32.090,19.100 C32.156,19.100 32.222,19.104 32.288,19.110 C32.881,19.170 33.416,19.494 33.746,19.992 C34.112,20.548 35.317,22.679 35.555,23.100 C35.990,23.871 35.868,24.838 35.256,25.475 Z" class="cls-2"/>
    <path d="M27.324,26.197 C27.324,26.197 27.259,27.411 27.259,27.404 C29.788,28.745 31.940,30.405 33.371,33.416 C33.371,33.613 30.247,36.011 30.258,36.011 C28.741,33.263 27.411,31.628 24.333,30.730 C22.675,32.899 20.560,34.760 16.669,35.987 C16.669,35.987 15.011,32.307 15.011,32.299 C18.140,31.584 19.042,30.714 20.635,27.774 C20.635,27.585 20.229,21.729 23.586,19.487 C23.594,19.487 27.218,20.965 27.259,21.006 C27.195,21.320 27.040,22.148 28.039,22.411 C28.917,22.641 30.973,22.362 32.241,21.097 C32.591,21.622 33.988,24.086 33.988,24.086 C33.988,24.086 31.072,27.104 27.324,26.197 ZM27.739,18.888 C25.854,18.888 24.325,17.343 24.325,15.438 C24.325,13.533 25.854,11.989 27.739,11.989 C29.624,11.989 31.152,13.533 31.152,15.438 C31.152,17.343 29.624,18.888 27.739,18.888 Z" class="cls-3"/>
  </g>
</svg>
