<svg xmlns="http://www.w3.org/2000/svg" xmlns:xlink="http://www.w3.org/1999/xlink" preserveAspectRatio="xMidYMid" width="48" height="48" viewBox="0 0 48 48">
  <defs>
    <style>
      .cls-1 {
        fill: #97c124;
      }

      .cls-2 {
        fill: #fff;
        fill-rule: evenodd;
      }
    </style>
  </defs>
  <g>
    <rect width="48" height="48" class="cls-1"/>
    <path d="M35.295,18.484 C34.354,18.484 33.590,19.264 33.590,20.225 L33.590,27.678 C33.590,28.639 34.354,29.419 35.295,29.419 C36.235,29.419 37.000,28.639 37.000,27.678 L37.000,20.225 C37.000,19.264 36.235,18.484 35.295,18.484 ZM13.707,18.484 C12.765,18.484 12.000,19.264 12.000,20.225 L12.000,27.678 C12.000,28.639 12.765,29.419 13.707,29.419 C14.647,29.419 15.410,28.639 15.410,27.678 L15.410,20.225 C15.410,19.264 14.647,18.484 13.707,18.484 ZM16.669,18.484 L16.546,18.484 L16.546,31.258 C16.546,32.272 17.354,33.098 18.346,33.098 L19.644,33.098 C19.601,33.251 19.577,33.412 19.577,33.581 L19.577,37.259 C19.577,38.220 20.340,39.000 21.280,39.000 C22.221,39.000 22.987,38.220 22.987,37.259 L22.987,33.581 C22.987,33.412 22.961,33.251 22.918,33.098 L26.083,33.098 C26.039,33.251 26.016,33.412 26.016,33.581 L26.016,37.259 C26.016,38.220 26.779,39.000 27.720,39.000 C28.662,39.000 29.425,38.220 29.425,37.259 L29.425,33.581 C29.425,33.412 29.399,33.251 29.356,33.098 L30.656,33.098 C31.648,33.098 32.454,32.272 32.454,31.258 L32.454,18.484 L16.669,18.484 ZM27.908,15.001 C27.438,15.001 27.057,14.611 27.057,14.129 C27.057,13.648 27.438,13.260 27.908,13.260 C28.381,13.260 28.760,13.648 28.760,14.129 C28.760,14.611 28.381,15.001 27.908,15.001 ZM21.092,15.001 C20.619,15.001 20.240,14.611 20.240,14.129 C20.240,13.648 20.619,13.260 21.092,13.260 C21.562,13.260 21.943,13.648 21.943,14.129 C21.943,14.611 21.562,15.001 21.092,15.001 ZM28.412,11.512 L28.731,11.021 L29.047,10.538 L29.756,9.451 C29.843,9.317 29.808,9.137 29.677,9.049 C29.546,8.959 29.370,8.996 29.283,9.130 L28.524,10.294 L28.203,10.783 L27.880,11.281 C26.853,10.873 25.709,10.645 24.499,10.645 C23.293,10.645 22.147,10.873 21.122,11.281 L20.797,10.783 L20.479,10.294 L19.718,9.130 C19.630,8.996 19.456,8.961 19.325,9.049 C19.194,9.137 19.159,9.317 19.245,9.451 L19.953,10.538 L20.269,11.021 L20.590,11.512 C18.177,12.660 16.546,14.835 16.546,17.324 L32.454,17.324 C32.454,14.835 30.823,12.660 28.412,11.512 Z" class="cls-2"/>
  </g>
</svg>
