<svg xmlns="http://www.w3.org/2000/svg" xmlns:xlink="http://www.w3.org/1999/xlink" preserveAspectRatio="xMidYMid" width="48" height="48" viewBox="0 0 48 48">
  <defs>
    <style>
      .cls-1 {
        fill: #0a69e2;
      }

      .cls-2 {
        fill: #fff;
        fill-rule: evenodd;
      }
    </style>
  </defs>
  <g>
    <rect width="48" height="48" class="cls-1"/>
    <path d="M38.996,26.150 C38.992,26.711 38.774,26.935 38.226,26.937 C37.253,26.941 36.279,26.937 35.305,26.939 C35.118,26.939 34.971,26.926 34.860,26.716 C34.060,25.204 33.244,23.701 32.429,22.197 C32.196,21.767 32.202,21.746 32.693,21.746 C34.519,21.745 36.344,21.744 38.170,21.746 C38.789,21.747 38.994,21.957 38.996,22.589 C38.999,23.176 38.997,23.764 38.997,24.351 C38.997,24.951 39.000,25.550 38.996,26.150 ZM33.616,27.992 C33.209,28.533 32.625,28.753 32.065,28.861 C31.481,28.853 31.111,28.630 30.846,28.193 C30.270,27.241 29.762,26.253 29.273,25.255 C27.634,21.908 26.152,18.487 24.615,15.093 C24.000,13.737 23.380,12.378 23.068,10.907 C23.030,10.724 23.012,10.542 23.033,10.360 C23.073,10.005 23.306,9.894 23.593,10.113 C23.986,10.413 24.252,10.830 24.525,11.234 C25.658,12.902 26.621,14.676 27.707,16.373 C29.895,19.792 31.748,23.403 33.700,26.958 C33.896,27.314 33.856,27.672 33.616,27.992 ZM23.836,18.915 C23.120,20.137 22.395,21.355 21.673,22.574 C19.707,25.894 17.739,29.215 15.772,32.535 C15.722,32.619 15.672,32.703 15.621,32.786 C15.330,33.257 14.952,33.369 14.475,33.112 C13.940,32.823 13.407,32.528 12.879,32.223 C12.338,31.911 12.253,31.581 12.572,31.040 C13.883,28.821 15.196,26.604 16.509,24.387 C17.929,21.991 19.351,19.597 20.768,17.199 C20.929,16.927 21.129,16.741 21.546,16.754 C21.560,16.757 21.666,16.754 21.747,16.798 C22.400,17.153 23.059,17.498 23.693,17.884 C24.059,18.107 24.094,18.474 23.836,18.915 ZM13.849,26.613 C13.708,26.854 13.545,26.947 13.265,26.944 C12.111,26.930 10.955,26.940 9.800,26.937 C9.216,26.936 9.002,26.726 9.001,26.149 C8.998,24.939 8.998,23.729 9.001,22.519 C9.003,21.966 9.223,21.748 9.782,21.747 C10.864,21.743 11.946,21.745 13.028,21.745 C14.123,21.745 15.217,21.744 16.311,21.746 C16.694,21.747 16.708,21.774 16.512,22.105 C15.624,23.607 14.729,25.106 13.849,26.613 ZM12.337,32.919 C12.868,33.215 13.403,33.506 13.930,33.811 C14.384,34.074 14.400,34.383 13.967,34.676 C13.231,35.176 12.484,35.659 11.741,36.148 C11.605,36.238 11.458,36.310 11.299,36.216 C11.155,36.130 11.139,35.981 11.158,35.829 C11.252,35.004 11.334,34.177 11.443,33.354 C11.519,32.771 11.824,32.633 12.337,32.919 ZM23.327,22.046 C23.452,21.834 23.594,21.734 23.849,21.740 C24.566,21.756 25.284,21.754 26.001,21.741 C26.246,21.737 26.370,21.832 26.470,22.051 C27.163,23.560 27.858,25.069 28.616,26.547 C28.798,26.901 28.775,26.936 28.384,26.937 C27.132,26.940 25.879,26.938 24.626,26.938 C23.373,26.938 22.121,26.940 20.868,26.937 C20.474,26.936 20.454,26.900 20.659,26.553 C21.548,25.050 22.443,23.551 23.327,22.046 ZM32.882,29.630 C33.172,29.476 33.466,29.329 33.764,29.192 C34.249,28.969 34.654,29.087 34.916,29.546 C35.206,30.055 35.472,30.577 35.745,31.094 C35.807,31.212 35.854,31.338 35.849,31.549 C35.849,31.550 35.849,31.551 35.849,31.552 C35.692,32.287 35.031,32.434 34.486,32.686 C34.135,32.848 33.792,32.636 33.500,32.191 C33.193,31.722 32.884,31.254 32.585,30.779 C32.268,30.275 32.365,29.905 32.882,29.630 ZM35.849,31.554 C35.850,31.552 35.849,31.551 35.849,31.549 C35.853,31.527 35.849,31.505 35.849,31.554 ZM37.633,33.718 C38.067,34.447 38.119,35.267 38.115,36.091 C38.115,36.335 38.121,36.580 38.113,36.824 C38.109,36.939 38.076,37.085 37.925,36.940 C37.523,36.555 36.989,36.433 36.509,36.206 C36.053,35.990 35.632,35.734 35.309,35.335 C34.757,34.652 34.809,33.841 35.434,33.401 C36.240,32.834 37.182,32.959 37.633,33.718 Z" class="cls-2"/>
  </g>
</svg>
