<svg xmlns="http://www.w3.org/2000/svg" xmlns:xlink="http://www.w3.org/1999/xlink" preserveAspectRatio="xMidYMid" width="48" height="48" viewBox="0 0 48 48">
  <defs>
    <style>
      .cls-1 {
        fill: #fc9847;
      }

      .cls-2 {
        fill: #fff;
        fill-rule: evenodd;
      }
    </style>
  </defs>
  <g>
    <rect width="48" height="48" class="cls-1"/>
    <path d="M35.946,28.430 C35.923,32.592 32.525,36.000 28.343,36.000 L19.608,36.000 C15.426,36.000 12.007,32.592 12.007,28.430 L12.007,19.584 C12.007,15.415 15.426,12.000 19.608,12.000 L24.924,12.000 C26.887,12.232 29.744,13.908 30.797,16.137 C31.086,16.763 31.239,16.775 31.479,18.629 C31.608,19.583 31.674,20.289 32.102,20.680 C32.704,21.226 34.940,20.858 35.382,21.203 L35.720,21.467 L35.923,21.885 L35.993,22.220 L35.946,28.430 ZM26.000,19.000 C26.000,18.448 25.552,18.000 25.000,18.000 L19.000,18.000 C18.448,18.000 18.000,18.448 18.000,19.000 L18.000,20.000 C18.000,20.552 18.448,21.000 19.000,21.000 L25.000,21.000 C25.552,21.000 26.000,20.552 26.000,20.000 L26.000,19.000 ZM30.000,28.000 C30.000,27.448 29.552,27.000 29.000,27.000 L19.000,27.000 C18.448,27.000 18.000,27.448 18.000,28.000 L18.000,29.000 C18.000,29.552 18.448,30.000 19.000,30.000 L29.000,30.000 C29.552,30.000 30.000,29.552 30.000,29.000 L30.000,28.000 Z" class="cls-2"/>
  </g>
</svg>
