<svg xmlns="http://www.w3.org/2000/svg" xmlns:xlink="http://www.w3.org/1999/xlink" preserveAspectRatio="xMidYMid" width="48" height="48" viewBox="0 0 48 48">
  <defs>
    <style>
      .cls-1 {
        fill: #ef3422;
      }

      .cls-2 {
        fill: #fff;
        fill-rule: evenodd;
      }
    </style>
  </defs>
  <g>
    <rect width="48" height="48" class="cls-1"/>
    <path d="M36.989,18.455 C37.020,18.814 36.876,18.884 36.547,18.882 C34.230,18.869 31.988,18.875 29.672,18.875 C29.439,18.875 29.207,18.875 28.939,18.875 C28.939,20.056 28.939,21.291 28.939,22.517 C29.079,22.517 29.227,22.517 29.376,22.517 C31.123,22.517 33.392,22.527 35.138,22.509 C35.492,22.505 35.574,22.618 35.566,22.953 C35.545,23.845 35.559,24.588 35.559,25.526 C33.503,25.526 30.971,25.526 28.912,25.526 C28.912,27.900 28.912,30.605 28.912,32.961 C27.695,32.961 26.375,32.961 25.168,32.961 C25.168,27.307 25.168,21.677 25.168,16.022 C29.077,16.022 33.040,16.022 36.982,16.022 C36.982,16.582 36.982,17.124 36.982,17.665 C36.982,18.029 36.958,18.094 36.989,18.455 ZM19.727,32.911 C19.087,32.982 18.437,32.981 17.791,32.984 C15.528,32.996 13.264,32.996 11.000,33.000 C11.000,27.337 11.000,21.674 11.000,16.011 C13.742,16.014 16.486,15.973 19.227,16.036 C21.339,16.085 22.995,17.525 23.351,19.492 C23.755,21.719 22.603,23.620 20.827,24.130 C20.782,24.143 20.745,24.185 20.685,24.228 C22.377,24.714 23.388,25.839 23.673,27.524 C24.142,30.303 22.614,32.588 19.727,32.911 ZM18.026,19.184 C17.458,19.156 16.888,19.177 16.319,19.176 C15.767,19.175 15.215,19.176 14.646,19.176 C14.635,19.299 14.622,19.373 14.622,19.448 C14.620,20.524 14.621,21.600 14.621,22.743 C15.680,22.743 16.686,22.744 17.692,22.741 C17.885,22.740 18.083,22.742 18.271,22.704 C18.981,22.561 19.516,22.196 19.702,21.453 C19.999,20.268 19.247,19.245 18.026,19.184 ZM18.335,25.963 C17.608,25.875 16.866,25.915 16.132,25.905 C15.645,25.898 15.157,25.904 14.646,25.904 C14.646,27.203 14.646,28.455 14.646,29.757 C14.693,29.773 14.740,29.803 14.787,29.803 C15.923,29.805 17.061,29.845 18.195,29.791 C19.368,29.735 20.066,29.012 20.097,27.946 C20.128,26.874 19.484,26.101 18.335,25.963 Z" class="cls-2"/>
  </g>
</svg>
