<svg xmlns="http://www.w3.org/2000/svg" xmlns:xlink="http://www.w3.org/1999/xlink" preserveAspectRatio="xMidYMid" width="48" height="48" viewBox="0 0 48 48">
  <defs>
    <style>
      .cls-1 {
        fill: #eb4d8a;
      }

      .cls-2 {
        fill: #fff;
        fill-rule: evenodd;
      }
    </style>
  </defs>
  <g>
    <rect width="48" height="48" class="cls-1"/>
    <path d="M24.000,10.000 C16.268,10.000 10.000,16.269 10.000,24.000 C10.000,31.731 16.268,38.000 24.000,38.000 C31.732,38.000 38.000,31.731 38.000,24.000 C38.000,16.269 31.732,10.000 24.000,10.000 ZM33.187,16.777 C34.691,18.687 35.614,21.074 35.686,23.672 C32.545,23.122 29.836,23.104 27.495,23.475 C27.198,22.796 26.892,22.134 26.580,21.492 C29.090,20.460 31.341,18.955 33.187,16.777 ZM31.576,15.103 C29.928,17.104 27.858,18.481 25.517,19.418 C24.018,16.641 22.476,14.327 21.245,12.638 C22.129,12.422 23.050,12.306 24.000,12.306 C26.889,12.306 29.534,13.361 31.576,15.103 ZM18.973,13.443 C20.164,15.032 21.748,17.336 23.298,20.159 C20.014,21.062 16.340,21.305 12.620,21.316 C13.441,17.837 15.817,14.953 18.973,13.443 ZM12.306,24.000 C12.306,23.873 12.311,23.748 12.316,23.623 C12.337,23.623 12.358,23.623 12.379,23.623 C16.545,23.623 20.683,23.349 24.392,22.257 C24.669,22.818 24.941,23.397 25.207,23.991 C20.326,25.422 17.284,28.634 15.199,31.689 C13.400,29.632 12.306,26.941 12.306,24.000 ZM16.903,33.285 C18.877,30.311 21.629,27.370 26.104,26.135 C27.151,28.815 28.003,31.738 28.454,34.810 C27.080,35.380 25.576,35.695 24.000,35.695 C21.333,35.695 18.873,34.795 16.903,33.285 ZM30.606,33.644 C30.128,30.837 29.343,28.161 28.399,25.680 C30.445,25.421 32.797,25.483 35.523,25.984 C34.978,29.153 33.157,31.890 30.606,33.644 Z" class="cls-2"/>
  </g>
</svg>
