<svg xmlns="http://www.w3.org/2000/svg" xmlns:xlink="http://www.w3.org/1999/xlink" preserveAspectRatio="xMidYMid" width="48" height="48" viewBox="0 0 48 48">
  <defs>
    <style>
      .cls-1 {
        fill: #067ee6;
      }

      .cls-2 {
        fill: #fff;
        fill-rule: evenodd;
      }
    </style>
  </defs>
  <g>
    <rect width="48" height="48" class="cls-1"/>
    <path d="M24.000,18.248 L29.352,14.000 L37.000,18.749 L31.712,22.777 L24.000,18.248 ZM37.000,26.805 L29.352,31.555 L24.000,27.306 L31.712,22.777 L37.000,26.805 ZM18.648,31.555 L11.000,26.805 L16.288,22.777 L24.000,27.306 L18.648,31.555 ZM11.000,18.749 L18.648,14.000 L24.000,18.248 L16.288,22.777 L11.000,18.749 ZM24.016,28.220 L29.383,32.456 L31.680,31.030 L31.680,32.629 L24.016,37.000 L16.352,32.629 L16.352,31.030 L18.648,32.456 L24.016,28.220 Z" class="cls-2"/>
  </g>
</svg>
