<svg xmlns="http://www.w3.org/2000/svg" xmlns:xlink="http://www.w3.org/1999/xlink" preserveAspectRatio="xMidYMid" width="48" height="48" viewBox="0 0 48 48">
  <defs>
    <style>
      .cls-1 {
        fill: #414752;
      }

      .cls-2 {
        fill: #fff;
        fill-rule: evenodd;
      }
    </style>
  </defs>
  <g>
    <rect width="48" height="48" class="cls-1"/>
    <path d="M24.734,9.998 L23.266,9.998 C19.806,9.998 17.001,12.775 17.001,16.200 L17.001,20.962 L17.001,23.195 L17.001,28.934 C17.001,30.076 17.936,31.001 19.089,31.001 L22.600,31.001 L22.600,36.543 C22.600,37.349 23.260,38.002 24.074,38.002 C24.887,38.002 25.547,37.349 25.547,36.543 L25.547,31.001 L28.911,31.001 C30.064,31.001 30.999,30.076 30.999,28.933 L30.999,23.195 L30.999,20.962 L30.999,16.199 C30.999,12.775 28.194,9.998 24.734,9.998 Z" class="cls-2"/>
  </g>
</svg>
