<svg xmlns="http://www.w3.org/2000/svg" xmlns:xlink="http://www.w3.org/1999/xlink" preserveAspectRatio="xMidYMid" width="48" height="48" viewBox="0 0 48 48">
  <defs>
    <style>
      .cls-1 {
        fill: #ef922f;
      }

      .cls-2 {
        fill: #fff;
        fill-rule: evenodd;
      }
    </style>
  </defs>
  <g>
    <rect width="48" height="48" class="cls-1"/>
    <path d="M36.000,36.012 L31.315,36.012 C30.199,17.945 12.015,16.710 12.015,16.710 L12.015,11.997 C37.227,13.456 36.000,36.012 36.000,36.012 ZM28.005,35.998 L23.267,35.998 C22.703,25.141 11.985,24.693 11.985,24.693 L11.985,19.993 C28.231,20.664 28.005,35.998 28.005,35.998 ZM15.382,29.142 C17.250,29.142 18.764,30.677 18.764,32.571 C18.764,34.465 17.250,36.000 15.382,36.000 C13.514,36.000 12.000,34.465 12.000,32.571 C12.000,30.677 13.514,29.142 15.382,29.142 Z" class="cls-2"/>
  </g>
</svg>
