<svg xmlns="http://www.w3.org/2000/svg" xmlns:xlink="http://www.w3.org/1999/xlink" preserveAspectRatio="xMidYMid" width="48" height="48" viewBox="0 0 48 48">
  <defs>
    <style>
      .cls-1 {
        fill: #43c1fc;
      }

      .cls-2 {
        fill: #fff;
        fill-rule: evenodd;
      }
    </style>
  </defs>
  <g>
    <rect width="48" height="48" class="cls-1"/>
    <path d="M28.838,26.015 C27.745,26.015 26.859,27.254 26.859,28.783 C26.859,30.312 27.745,31.552 28.838,31.552 C29.930,31.552 30.816,30.312 30.816,28.783 C30.816,27.254 29.930,26.015 28.838,26.015 ZM35.726,18.810 C35.951,18.248 35.962,15.056 34.761,12.000 C34.761,12.000 32.004,12.306 27.834,15.199 C26.960,14.955 25.479,14.833 24.000,14.833 C22.521,14.833 21.041,14.954 20.166,15.198 C15.995,12.306 13.240,12.000 13.240,12.000 C12.038,15.056 12.049,18.248 12.274,18.810 C10.863,20.360 10.000,22.221 10.000,24.764 C10.000,35.820 19.072,35.997 21.363,35.997 C21.881,35.997 22.911,35.998 24.000,36.000 C25.089,35.998 26.120,35.997 26.637,35.997 C28.928,35.997 38.000,35.820 38.000,24.764 C38.000,22.221 37.137,20.360 35.726,18.810 ZM24.043,34.638 L23.957,34.638 C18.218,34.638 13.748,33.945 13.748,28.306 C13.748,26.955 14.219,25.701 15.339,24.661 C17.208,22.926 20.369,23.845 23.957,23.845 C23.971,23.845 23.986,23.845 24.000,23.844 C24.015,23.845 24.029,23.845 24.043,23.845 C27.631,23.845 30.793,22.927 32.661,24.661 C33.781,25.701 34.253,26.955 34.253,28.306 C34.252,33.945 29.783,34.638 24.043,34.638 ZM19.162,26.015 C18.070,26.015 17.184,27.254 17.184,28.783 C17.184,30.312 18.070,31.552 19.162,31.552 C20.255,31.552 21.141,30.312 21.141,28.783 C21.141,27.254 20.255,26.015 19.162,26.015 Z" class="cls-2"/>
  </g>
</svg>
