<svg xmlns="http://www.w3.org/2000/svg" xmlns:xlink="http://www.w3.org/1999/xlink" preserveAspectRatio="xMidYMid" width="48" height="48" viewBox="0 0 48 48">
  <defs>
    <style>
      .cls-1 {
        fill: #ffbc11;
      }

      .cls-2 {
        fill: #fff;
        fill-rule: evenodd;
      }
    </style>
  </defs>
  <g>
    <rect width="48" height="48" class="cls-1"/>
    <path d="M23.312,20.096 L23.234,19.959 L19.385,13.252 L19.155,12.847 L18.924,13.252 L10.079,28.824 L10.000,28.961 L10.079,29.097 L13.926,35.807 L14.157,36.210 L14.389,35.805 L23.234,20.231 L23.312,20.096 ZM29.667,28.012 L29.745,28.150 L29.900,28.150 L37.539,28.116 L38.000,28.114 L37.770,27.708 L28.924,12.137 L28.847,12.000 L28.694,12.000 L21.053,12.032 L20.592,12.035 L20.821,12.440 L29.667,28.012 ZM19.846,29.716 L19.692,29.716 L19.616,29.853 L15.823,36.593 L15.593,37.000 L33.901,37.000 L33.978,36.864 L37.770,30.124 L38.000,29.716 L19.846,29.716 Z" class="cls-2"/>
  </g>
</svg>
