<svg xmlns="http://www.w3.org/2000/svg" xmlns:xlink="http://www.w3.org/1999/xlink" preserveAspectRatio="xMidYMid" width="48" height="48" viewBox="0 0 48 48">
  <defs>
    <style>
      .cls-1 {
        fill: #567ef0;
      }

      .cls-2 {
        fill: #fff;
        fill-rule: evenodd;
      }
    </style>
  </defs>
  <g>
    <rect width="48" height="48" class="cls-1"/>
    <path d="M27.470,13.137 C28.177,13.735 29.652,14.995 29.652,17.389 C29.652,19.720 28.361,20.823 27.071,21.862 C26.671,22.272 26.210,22.713 26.210,23.406 C26.210,24.099 26.671,24.477 27.009,24.760 L28.116,25.642 C29.468,26.807 30.696,27.879 30.696,30.053 C30.696,33.013 27.900,36.006 22.614,36.006 C18.158,36.006 16.008,33.832 16.008,31.501 C16.008,30.367 16.561,28.761 18.374,27.658 C20.279,26.461 22.861,26.304 24.243,26.209 C23.813,25.642 23.322,25.044 23.322,24.067 C23.322,23.532 23.475,23.217 23.630,22.839 C23.291,22.870 22.953,22.902 22.645,22.902 C19.388,22.902 17.544,20.413 17.544,17.956 C17.544,16.507 18.190,14.901 19.512,13.735 C21.263,12.255 23.352,12.003 25.012,12.003 L31.342,12.003 L29.375,13.137 L27.470,13.137 L27.470,13.137 ZM25.288,27.123 C25.043,27.091 24.888,27.091 24.582,27.091 C24.305,27.091 22.645,27.154 21.355,27.595 C20.679,27.847 18.712,28.603 18.712,30.840 C18.712,33.076 20.833,34.682 24.121,34.682 C27.071,34.682 28.638,33.234 28.638,31.281 C28.638,29.674 27.624,28.824 25.288,27.123 L25.288,27.123 ZM26.180,21.138 C26.886,20.413 26.948,19.405 26.948,18.838 C26.948,16.570 25.627,13.042 23.075,13.042 C22.277,13.042 21.417,13.452 20.925,14.082 C20.402,14.743 20.248,15.594 20.248,16.413 C20.248,18.523 21.447,22.020 24.090,22.020 C24.857,22.020 25.688,21.641 26.180,21.138 L26.180,21.138 Z" class="cls-2"/>
  </g>
</svg>
