<svg xmlns="http://www.w3.org/2000/svg" xmlns:xlink="http://www.w3.org/1999/xlink" preserveAspectRatio="xMidYMid" width="48" height="48" viewBox="0 0 48 48">
  <defs>
    <style>
      .cls-1 {
        fill: #007bb6;
      }

      .cls-2 {
        fill: #fff;
        fill-rule: evenodd;
      }
    </style>
  </defs>
  <g>
    <rect width="48" height="48" class="cls-1"/>
    <path d="M31.544,36.860 L31.544,28.505 C31.544,26.513 31.510,23.950 28.770,23.950 C25.992,23.950 25.568,26.122 25.568,28.363 L25.568,36.860 L20.235,36.860 L20.235,19.680 L25.353,19.680 L25.353,22.029 L25.426,22.029 C26.138,20.678 27.880,19.254 30.478,19.254 C35.884,19.254 36.883,22.811 36.883,27.438 L36.883,36.860 L31.544,36.860 ZM14.214,17.333 C12.499,17.333 11.117,15.946 11.117,14.236 C11.117,12.527 12.499,11.140 14.214,11.140 C15.922,11.140 17.309,12.527 17.309,14.236 C17.309,15.946 15.922,17.333 14.214,17.333 ZM16.885,36.860 L11.541,36.860 L11.541,19.680 L16.885,19.680 L16.885,36.860 Z" class="cls-2"/>
  </g>
</svg>
