<svg xmlns="http://www.w3.org/2000/svg" xmlns:xlink="http://www.w3.org/1999/xlink" preserveAspectRatio="xMidYMid" width="48" height="48" viewBox="0 0 48 48">
  <defs>
    <style>
      .cls-1 {
        fill: #1d90dd;
      }

      .cls-2 {
        fill: #fff;
        fill-rule: evenodd;
      }
    </style>
  </defs>
  <g>
    <rect width="48" height="48" class="cls-1"/>
    <path d="M24.000,33.000 L24.000,27.511 L24.028,27.532 L29.165,23.654 L34.647,29.241 L30.388,22.730 L38.000,16.983 L38.000,33.000 L24.000,33.000 ZM10.000,16.983 L17.612,22.730 L13.353,29.241 L18.835,23.654 L23.972,27.532 L24.000,27.511 L24.000,33.000 L10.000,33.000 L10.000,16.983 ZM24.000,25.802 L24.000,15.000 L36.323,15.000 C36.827,15.000 37.274,15.232 37.582,15.590 L24.028,25.823 L24.000,25.802 ZM10.419,15.590 C10.726,15.232 11.173,15.000 11.677,15.000 L24.000,15.000 L24.000,25.802 L23.972,25.823 L10.419,15.590 Z" class="cls-2"/>
  </g>
</svg>
