<svg xmlns="http://www.w3.org/2000/svg" xmlns:xlink="http://www.w3.org/1999/xlink" preserveAspectRatio="xMidYMid" width="48" height="48" viewBox="0 0 48 48">
  <defs>
    <style>
      .cls-1 {
        fill: #292929;
      }

      .cls-2 {
        fill: #fff;
        fill-rule: evenodd;
      }
    </style>
  </defs>
  <g>
    <rect width="48" height="48" class="cls-1"/>
    <path d="M37.563,32.906 L37.388,32.906 L28.812,32.906 L28.637,32.906 C28.375,32.906 28.200,32.723 28.200,32.449 L28.200,30.621 C28.200,27.879 30.300,25.321 33.100,25.321 C35.900,25.321 38.000,27.971 38.000,30.621 L38.000,32.449 C38.000,32.723 37.825,32.906 37.563,32.906 ZM33.100,24.315 C30.635,24.315 28.637,22.229 28.637,19.655 C28.637,17.081 30.635,14.994 33.100,14.994 C35.565,14.994 37.563,17.081 37.563,19.655 C37.563,22.229 35.565,24.315 33.100,24.315 ZM27.150,32.997 L26.975,32.997 L19.275,32.997 L19.100,32.997 C18.837,32.997 18.662,32.814 18.662,32.540 L18.662,30.895 C18.662,28.519 20.500,26.143 23.038,26.143 C25.575,26.143 27.500,28.428 27.588,30.895 L27.588,32.540 C27.588,32.814 27.413,32.997 27.150,32.997 ZM23.038,25.138 C20.815,25.138 19.012,23.256 19.012,20.934 C19.012,18.612 20.815,16.730 23.038,16.730 C25.260,16.730 27.063,18.612 27.063,20.934 C27.063,23.256 25.260,25.138 23.038,25.138 ZM17.438,32.906 L17.350,32.906 L10.437,32.906 L10.350,32.906 C10.175,32.906 10.000,32.723 10.000,32.540 L10.000,31.078 C10.000,28.885 11.662,26.783 13.938,26.783 C16.213,26.783 17.962,28.885 17.787,31.078 L17.787,32.540 C17.787,32.723 17.612,32.906 17.438,32.906 ZM13.938,25.960 C11.956,25.960 10.350,24.283 10.350,22.213 C10.350,20.144 11.956,18.467 13.938,18.467 C15.919,18.467 17.525,20.144 17.525,22.213 C17.525,24.283 15.919,25.960 13.938,25.960 Z" class="cls-2"/>
  </g>
</svg>
