<svg xmlns="http://www.w3.org/2000/svg" xmlns:xlink="http://www.w3.org/1999/xlink" preserveAspectRatio="xMidYMid" width="48" height="48" viewBox="0 0 48 48">
  <defs>
    <style>
      .cls-1 {
        fill: #b8242a;
      }

      .cls-2 {
        fill: #fff;
        fill-rule: evenodd;
      }
    </style>
  </defs>
  <g>
    <rect width="48" height="48" class="cls-1"/>
    <path d="M24.000,10.003 C16.270,10.003 10.003,16.270 10.003,24.000 C10.003,29.731 13.450,34.655 18.381,36.820 C18.342,35.843 18.374,34.669 18.625,33.606 C18.894,32.470 20.426,25.979 20.426,25.979 C20.426,25.979 19.979,25.085 19.979,23.764 C19.979,21.690 21.181,20.141 22.678,20.141 C23.952,20.141 24.567,21.097 24.567,22.242 C24.567,23.522 23.750,25.436 23.331,27.210 C22.980,28.694 24.075,29.905 25.540,29.905 C28.192,29.905 29.978,26.499 29.978,22.464 C29.978,19.396 27.912,17.100 24.154,17.100 C19.908,17.100 17.263,20.266 17.263,23.803 C17.263,25.022 17.622,25.882 18.185,26.548 C18.444,26.854 18.480,26.977 18.387,27.328 C18.320,27.586 18.165,28.206 18.101,28.452 C18.008,28.806 17.721,28.933 17.401,28.802 C15.445,28.004 14.534,25.862 14.534,23.454 C14.534,19.478 17.888,14.711 24.538,14.711 C29.882,14.711 33.399,18.578 33.399,22.729 C33.399,28.220 30.346,32.322 25.847,32.322 C24.335,32.322 22.914,31.505 22.427,30.577 C22.427,30.577 21.615,33.802 21.442,34.425 C21.146,35.504 20.565,36.583 20.034,37.423 C21.293,37.795 22.622,37.997 24.000,37.997 C31.730,37.997 37.997,31.731 37.997,24.000 C37.997,16.270 31.730,10.003 24.000,10.003 Z" class="cls-2"/>
  </g>
</svg>
