<svg xmlns="http://www.w3.org/2000/svg" xmlns:xlink="http://www.w3.org/1999/xlink" preserveAspectRatio="xMidYMid" width="48" height="48" viewBox="0 0 48 48">
  <defs>
    <style>
      .cls-1 {
        fill: #1e6fed;
      }

      .cls-2 {
        fill: #fff;
        fill-rule: evenodd;
      }
    </style>
  </defs>
  <g>
    <rect width="48" height="48" class="cls-1"/>
    <path d="M38.949,20.074 C38.137,21.026 37.129,21.727 35.924,22.105 C35.467,22.249 35.363,22.479 35.400,22.908 C35.694,26.267 34.778,29.287 32.667,31.930 C30.533,34.601 27.702,36.180 24.323,36.754 C20.677,37.373 17.202,36.840 14.048,34.872 C10.607,32.726 8.603,29.626 8.105,25.636 C7.242,18.743 11.500,12.720 18.408,11.311 C20.487,10.887 22.252,10.907 24.332,11.318 C24.996,11.449 24.996,11.454 24.996,12.130 C24.997,14.257 24.997,16.383 24.996,18.510 C24.996,19.119 24.992,19.123 24.415,18.923 C20.407,17.530 16.733,19.878 15.509,23.492 C14.790,25.615 15.654,27.701 17.658,28.751 C21.536,30.784 26.811,28.373 27.851,24.168 C27.951,23.765 28.010,23.354 28.009,22.935 C28.005,21.317 28.007,19.699 28.007,18.081 C28.008,16.386 28.006,14.690 28.009,12.995 C28.010,12.497 28.066,12.454 28.506,12.704 C29.562,13.304 30.784,13.949 31.847,14.537 C33.613,15.515 35.448,16.332 37.457,16.700 C37.964,16.793 38.476,16.848 38.994,16.851 C39.685,16.855 40.032,17.215 39.996,17.900 C39.949,18.760 39.485,19.445 38.949,20.074 Z" class="cls-2"/>
  </g>
</svg>
