<svg xmlns="http://www.w3.org/2000/svg" xmlns:xlink="http://www.w3.org/1999/xlink" preserveAspectRatio="xMidYMid" width="48" height="48" viewBox="0 0 48 48">
  <defs>
    <style>
      .cls-1 {
        fill: #6bab36;
      }

      .cls-2 {
        fill: #fff;
        fill-rule: evenodd;
      }
    </style>
  </defs>
  <g>
    <rect width="48" height="48" class="cls-1"/>
    <path d="M31.000,19.298 L30.569,27.504 C29.929,27.499 28.987,27.494 28.349,27.506 L27.912,19.328 L27.910,16.005 L31.008,16.006 L31.000,19.298 ZM30.996,31.919 L27.799,31.919 L27.799,28.936 L30.996,28.936 L30.996,31.919 ZM26.935,22.118 L24.975,22.117 L24.983,28.810 C24.987,29.480 25.311,29.765 26.017,29.788 C26.090,29.791 26.861,29.791 26.934,29.788 L26.929,31.872 C25.842,31.982 24.491,32.086 23.408,31.883 C22.425,31.698 22.087,31.177 21.953,30.170 C21.907,29.819 21.884,29.467 21.884,29.113 L21.887,22.058 L20.053,22.058 L20.062,31.922 L16.997,31.922 L16.996,25.945 L16.990,20.030 L21.894,20.030 L21.889,16.007 L24.978,16.008 L24.974,19.983 L26.936,19.985 L26.935,22.118 ZM17.002,18.844 L17.008,16.008 C17.913,16.015 19.138,16.017 20.042,16.007 L20.040,18.844 L17.002,18.844 Z" class="cls-2"/>
  </g>
</svg>
