<svg xmlns="http://www.w3.org/2000/svg" xmlns:xlink="http://www.w3.org/1999/xlink" preserveAspectRatio="xMidYMid" width="48" height="48" viewBox="0 0 48 48">
  <defs>
    <style>
      .cls-1 {
        fill: #78d5b7;
      }

      .cls-2 {
        fill: #fff;
        fill-rule: evenodd;
      }
    </style>
  </defs>
  <g>
    <rect width="48" height="48" class="cls-1"/>
    <path d="M28.400,38.700 C17.400,42.000 12.600,39.400 9.300,28.400 C6.000,17.400 8.600,12.600 19.600,9.300 C30.600,6.000 35.400,8.600 38.700,19.600 C42.000,30.600 39.400,35.400 28.400,38.700 ZM34.200,24.500 C33.900,23.700 33.000,23.200 32.100,23.500 L30.000,24.200 L28.600,20.100 L30.700,19.400 C31.500,19.100 32.000,18.200 31.700,17.300 C31.400,16.500 30.500,16.000 29.600,16.300 L27.500,17.000 L26.800,14.800 C26.500,14.000 25.600,13.500 24.700,13.800 C23.900,14.100 23.400,15.000 23.700,15.900 L24.400,18.000 L20.100,19.400 L19.400,17.300 C19.100,16.500 18.200,16.000 17.300,16.300 C16.400,16.600 16.000,17.600 16.300,18.500 L17.000,20.600 L14.900,21.300 C14.100,21.600 13.600,22.500 13.900,23.400 C14.100,24.000 14.700,24.500 15.400,24.500 C15.600,24.500 15.800,24.500 16.000,24.400 L18.000,23.700 L19.400,27.900 L17.300,28.600 C16.500,28.900 16.000,29.800 16.300,30.700 C16.500,31.300 17.100,31.800 17.800,31.800 C18.000,31.800 18.200,31.800 18.400,31.700 L20.500,31.000 L21.200,33.100 C21.400,33.700 22.000,34.200 22.700,34.200 C22.900,34.200 23.100,34.200 23.300,34.100 C24.100,33.800 24.600,32.900 24.300,32.000 L23.600,29.900 L27.900,28.500 L28.600,30.600 C28.800,31.200 29.400,31.700 30.100,31.700 C30.300,31.700 30.500,31.700 30.700,31.600 C31.500,31.300 32.000,30.400 31.700,29.500 L31.000,27.400 L33.100,26.700 C34.000,26.400 34.400,25.500 34.200,24.500 ZM21.152,22.740 L25.419,21.311 L26.784,25.388 L22.518,26.817 L21.152,22.740 Z" class="cls-2"/>
  </g>
</svg>
