<svg xmlns="http://www.w3.org/2000/svg" xmlns:xlink="http://www.w3.org/1999/xlink" preserveAspectRatio="xMidYMid" width="48" height="48" viewBox="0 0 48 48">
  <defs>
    <style>
      .cls-1 {
        fill: #78ba22;
      }

      .cls-2 {
        fill: #fff;
        fill-rule: evenodd;
      }
    </style>
  </defs>
  <g>
    <rect width="48" height="48" class="cls-1"/>
    <path d="M33.533,36.851 C32.589,35.343 29.806,31.962 23.448,31.059 C16.661,30.096 12.816,33.090 11.662,34.187 C9.374,31.420 8.000,27.870 8.000,24.000 C8.000,15.164 15.163,8.000 24.000,8.000 C32.837,8.000 40.000,15.164 40.000,24.000 C40.000,29.265 37.457,33.935 33.533,36.851 ZM16.465,28.023 C16.465,28.023 19.307,27.083 23.344,27.581 C27.382,28.080 30.608,29.794 30.608,29.794 C31.808,30.422 32.723,28.677 31.522,28.049 C31.522,28.049 27.879,25.954 23.539,25.566 C19.198,25.179 15.779,26.104 15.779,26.104 C14.584,26.447 15.270,28.366 16.465,28.023 ZM16.277,23.282 C16.277,23.282 19.422,22.162 23.937,22.616 C28.452,23.070 32.093,24.899 32.093,24.899 C33.447,25.570 34.423,23.601 33.068,22.930 C33.068,22.930 28.953,20.686 24.103,20.363 C19.253,20.041 15.463,21.160 15.463,21.160 C14.138,21.572 14.952,23.694 16.277,23.282 ZM35.574,17.885 C35.574,17.885 30.769,15.058 24.946,14.632 C19.123,14.206 14.479,15.589 14.479,15.589 C12.854,16.098 13.687,18.758 15.312,18.248 C15.312,18.248 19.180,16.861 24.590,17.450 C30.000,18.039 34.262,20.345 34.262,20.345 C35.848,21.191 37.160,18.731 35.574,17.885 ZM22.980,36.226 C26.445,36.908 27.689,38.529 28.126,39.462 C26.810,39.812 25.427,40.000 24.000,40.000 C21.220,40.000 18.605,39.290 16.327,38.043 C16.978,37.272 18.990,35.442 22.980,36.226 Z" class="cls-2"/>
  </g>
</svg>
