<svg xmlns="http://www.w3.org/2000/svg" xmlns:xlink="http://www.w3.org/1999/xlink" preserveAspectRatio="xMidYMid" width="48" height="48" viewBox="0 0 48 48">
  <defs>
    <style>
      .cls-1 {
        fill: #f77b01;
      }

      .cls-2 {
        fill: #fff;
        fill-rule: evenodd;
      }
    </style>
  </defs>
  <g>
    <rect width="48" height="48" class="cls-1"/>
    <path d="M24.566,12.901 L31.093,22.678 L33.121,21.255 L26.610,11.461 L24.566,12.901 ZM34.021,9.000 L31.583,9.435 L33.563,21.104 L36.000,20.669 L34.021,9.000 ZM30.160,37.008 L14.979,37.008 L14.979,26.662 L13.000,26.662 L13.000,38.983 L13.016,38.983 L13.589,39.000 L32.107,39.000 L32.107,38.983 L32.123,38.397 L32.123,26.662 L30.160,26.662 L30.160,37.008 ZM29.228,25.908 L18.055,22.845 L17.417,25.289 L28.590,28.353 L29.228,25.908 ZM30.684,23.029 L20.721,17.002 L19.462,19.178 L29.424,25.205 L30.684,23.029 ZM28.181,32.454 L16.615,32.471 L16.615,34.999 L28.181,34.982 L28.181,32.454 ZM28.459,29.223 L16.943,28.135 L16.713,30.646 L28.246,31.734 L28.459,29.223 Z" class="cls-2"/>
  </g>
</svg>
