<svg xmlns="http://www.w3.org/2000/svg" xmlns:xlink="http://www.w3.org/1999/xlink" preserveAspectRatio="xMidYMid" width="48" height="48" viewBox="0 0 48 48">
  <defs>
    <style>
      .cls-1 {
        fill: #589542;
      }

      .cls-2 {
        fill: #fff;
        fill-rule: evenodd;
      }
    </style>
  </defs>
  <g>
    <rect width="48" height="48" class="cls-1"/>
    <path d="M16.781,24.095 C16.155,24.095 15.647,24.650 15.647,25.336 C15.647,26.022 16.155,26.577 16.781,26.577 C17.408,26.577 17.916,26.022 17.916,25.336 C17.916,24.650 17.408,24.095 16.781,24.095 ZM30.941,27.877 C29.650,27.877 28.602,26.732 28.602,25.319 C28.602,23.905 29.650,22.760 30.941,22.760 C32.233,22.760 33.280,23.905 33.280,25.319 C33.280,26.732 32.233,27.877 30.941,27.877 ZM30.941,21.626 C29.077,21.626 27.566,23.279 27.566,25.319 C27.566,27.357 29.077,29.011 30.941,29.011 C32.805,29.011 34.316,27.357 34.316,25.319 C34.316,23.279 32.805,21.626 30.941,21.626 ZM30.943,31.479 C27.851,31.479 25.345,28.737 25.345,25.354 C25.345,21.973 27.851,19.230 30.943,19.230 C34.035,19.230 36.542,21.973 36.542,25.354 C36.542,28.737 34.035,31.479 30.943,31.479 ZM17.046,17.748 C19.035,16.800 21.506,16.289 23.991,16.289 C26.480,16.289 28.735,16.802 30.727,17.754 C26.987,17.879 23.990,21.232 23.989,25.353 C23.988,21.157 20.881,17.754 17.046,17.748 ZM17.035,31.479 C13.943,31.479 11.437,28.737 11.437,25.354 C11.437,21.973 13.943,19.230 17.035,19.230 C20.127,19.230 22.634,21.973 22.634,25.354 C22.634,28.737 20.127,31.479 17.035,31.479 ZM37.958,17.854 L33.310,17.854 C30.940,16.109 27.703,15.019 23.991,15.019 C20.277,15.019 16.818,16.109 14.448,17.854 L10.020,17.854 C10.742,18.778 11.277,20.028 11.410,20.887 C10.575,22.141 10.081,23.684 10.081,25.354 C10.081,29.556 13.194,32.962 17.035,32.962 C19.214,32.962 21.159,31.864 22.434,30.148 C22.954,30.813 23.815,32.150 23.989,32.538 C23.989,32.538 24.988,30.907 25.549,30.155 C26.824,31.867 28.767,32.962 30.943,32.962 C34.784,32.962 37.898,29.556 37.898,25.354 C37.898,23.685 37.403,22.143 36.569,20.889 C36.701,20.031 37.235,18.779 37.958,17.854 ZM16.954,27.894 C15.663,27.894 14.615,26.749 14.615,25.336 C14.615,23.922 15.663,22.777 16.954,22.777 C18.246,22.777 19.293,23.922 19.293,25.336 C19.293,26.749 18.246,27.894 16.954,27.894 ZM16.954,21.643 C15.090,21.643 13.579,23.297 13.579,25.336 C13.579,27.376 15.090,29.028 16.954,29.028 C18.819,29.028 20.330,27.376 20.330,25.336 C20.330,23.297 18.819,21.643 16.954,21.643 ZM30.768,24.077 C30.142,24.077 29.633,24.633 29.633,25.319 C29.633,26.005 30.142,26.560 30.768,26.560 C31.395,26.560 31.902,26.005 31.902,25.319 C31.902,24.633 31.395,24.077 30.768,24.077 Z" class="cls-2"/>
  </g>
</svg>
