<svg xmlns="http://www.w3.org/2000/svg" xmlns:xlink="http://www.w3.org/1999/xlink" preserveAspectRatio="xMidYMid" width="48" height="48" viewBox="0 0 48 48">
  <defs>
    <style>
      .cls-1 {
        fill: #466484;
      }

      .cls-2 {
        fill: #fff;
        fill-rule: evenodd;
      }
    </style>
  </defs>
  <g>
    <rect width="48" height="48" class="cls-1"/>
    <path d="M28.179,32.037 C26.122,32.037 25.006,30.437 25.006,29.203 C25.006,28.657 25.006,25.665 25.006,22.006 L29.998,22.006 L29.998,17.964 L25.006,17.964 C25.006,14.813 25.006,11.969 25.006,11.969 C25.006,11.969 23.163,11.969 21.517,11.969 C21.517,17.180 16.991,18.147 16.991,18.147 L16.991,21.961 L19.996,21.961 C19.996,21.961 19.996,27.558 19.996,30.528 C19.996,33.500 22.739,35.969 26.076,35.969 C29.413,35.969 31.009,34.642 31.009,34.642 L31.009,30.712 C31.009,30.712 30.236,32.037 28.179,32.037 Z" class="cls-2"/>
  </g>
</svg>
