<svg xmlns="http://www.w3.org/2000/svg" xmlns:xlink="http://www.w3.org/1999/xlink" preserveAspectRatio="xMidYMid" width="48" height="48" viewBox="0 0 48 48">
  <defs>
    <style>
      .cls-1 {
        fill: #105685;
      }

      .cls-2 {
        fill: #fff;
        fill-rule: evenodd;
      }
    </style>
  </defs>
  <g>
    <rect width="48" height="48" class="cls-1"/>
    <path d="M30.205,14.003 C27.294,14.003 24.886,16.130 24.475,18.900 L24.290,18.900 C23.876,16.130 21.469,14.003 18.558,14.003 C15.358,14.003 12.765,16.575 12.765,19.744 C12.765,22.886 15.311,25.439 18.471,25.485 L18.471,25.488 L18.646,25.488 L18.646,27.445 L12.000,25.661 L12.000,33.298 L18.646,31.317 L18.646,33.997 L28.413,33.997 L25.549,25.488 L30.192,25.488 L30.192,25.488 C30.196,25.488 30.200,25.488 30.205,25.488 C33.405,25.488 36.000,22.916 36.000,19.744 C36.000,16.575 33.405,14.003 30.205,14.003 ZM18.558,21.366 C17.655,21.366 16.922,20.642 16.922,19.744 C16.922,18.849 17.655,18.123 18.558,18.123 C19.462,18.123 20.195,18.849 20.195,19.744 C20.195,20.642 19.462,21.366 18.558,21.366 ZM30.322,21.368 C29.418,21.368 28.688,20.642 28.688,19.744 C28.688,18.849 29.418,18.123 30.322,18.123 C31.227,18.123 31.960,18.849 31.960,19.744 C31.960,20.642 31.227,21.368 30.322,21.368 Z" class="cls-2"/>
  </g>
</svg>
