<svg xmlns="http://www.w3.org/2000/svg" xmlns:xlink="http://www.w3.org/1999/xlink" preserveAspectRatio="xMidYMid" width="48" height="48" viewBox="0 0 48 48">
  <defs>
    <style>
      .cls-1 {
        fill: #00b589;
      }

      .cls-2 {
        fill: #fff;
        fill-rule: evenodd;
      }
    </style>
  </defs>
  <g>
    <rect width="48" height="48" class="cls-1"/>
    <path d="M36.000,23.919 C35.324,24.085 34.670,24.159 34.082,24.159 C30.772,24.159 28.223,21.692 28.223,17.402 C28.223,15.299 28.985,14.206 30.062,14.206 C31.087,14.206 31.770,15.187 31.770,17.177 C31.770,18.309 31.486,19.550 31.276,20.284 C31.276,20.284 32.296,22.183 35.086,21.600 C35.678,20.197 36.000,18.379 36.000,16.785 C36.000,12.495 33.951,10.000 30.194,10.000 C26.332,10.000 24.072,13.168 24.072,17.346 C24.072,21.484 25.885,25.037 28.875,26.655 C27.618,29.339 26.018,31.703 24.350,33.484 C21.324,29.579 18.588,24.370 17.465,14.206 L13.000,14.206 C15.063,31.135 21.210,36.525 22.836,37.560 C23.755,38.149 24.547,38.121 25.388,37.616 C26.708,36.815 30.671,32.587 32.867,27.634 C33.789,27.631 34.897,27.518 36.000,27.252 L36.000,23.919 Z" class="cls-2"/>
  </g>
</svg>
