<svg xmlns="http://www.w3.org/2000/svg" xmlns:xlink="http://www.w3.org/1999/xlink" preserveAspectRatio="xMidYMid" width="48" height="48" viewBox="0 0 48 48">
  <defs>
    <style>
      .cls-1 {
        fill: #2eb844;
      }

      .cls-2 {
        fill: #fff;
        fill-rule: evenodd;
      }
    </style>
  </defs>
  <g>
    <rect width="48" height="48" class="cls-1"/>
    <path d="M23.992,38.812 C21.446,38.812 18.994,38.156 16.825,37.031 L8.997,39.000 L11.166,31.312 C9.846,29.062 9.186,26.531 9.186,23.906 C9.092,15.656 15.787,9.000 24.086,9.000 C28.047,9.000 31.819,10.594 34.648,13.406 C37.477,16.219 38.986,19.969 38.986,23.906 C38.986,32.063 32.291,38.812 23.992,38.812 ZM32.857,15.094 C30.499,12.750 27.387,11.437 24.086,11.437 C17.202,11.531 11.638,17.063 11.638,23.906 C11.638,26.250 12.298,28.500 13.524,30.469 L13.807,30.938 L12.581,35.531 L17.296,34.219 L17.768,34.500 C19.654,35.625 21.823,36.187 24.086,36.187 C30.970,36.187 36.534,30.656 36.534,23.813 C36.534,20.531 35.214,17.437 32.857,15.094 ZM28.896,30.938 C28.236,31.031 27.387,31.031 26.538,30.750 C25.972,30.656 25.218,30.375 24.369,30.000 C20.597,28.406 18.145,24.656 17.956,24.375 C17.768,24.094 16.448,22.406 16.448,20.531 C16.448,18.750 17.391,17.813 17.673,17.437 C18.051,17.063 18.428,16.969 18.711,16.969 C18.994,16.969 19.277,16.969 19.465,16.969 C19.748,16.969 20.031,16.875 20.314,17.625 C20.597,18.375 21.351,20.250 21.446,20.438 C21.540,20.625 21.540,20.812 21.446,21.094 C21.351,21.375 21.257,21.563 21.068,21.750 C20.880,21.937 20.691,22.219 20.503,22.406 C20.314,22.594 20.125,22.781 20.314,23.156 C20.503,23.531 21.257,24.656 22.389,25.687 C23.803,27.000 25.029,27.375 25.406,27.563 C25.784,27.750 26.067,27.750 26.255,27.469 C26.538,27.188 27.198,26.344 27.481,25.969 C27.764,25.594 27.953,25.687 28.330,25.781 C28.707,25.875 30.499,26.812 30.876,26.906 C31.253,27.094 31.536,27.188 31.631,27.375 C31.725,27.563 31.725,28.312 31.442,29.156 C31.065,30.000 29.650,30.844 28.896,30.938 Z" class="cls-2"/>
  </g>
</svg>
