<svg xmlns="http://www.w3.org/2000/svg" xmlns:xlink="http://www.w3.org/1999/xlink" preserveAspectRatio="xMidYMid" width="48" height="48" viewBox="0 0 48 48">
  <defs>
    <style>
      .cls-1 {
        fill: #2485b3;
      }

      .cls-2 {
        fill: #fff;
        fill-rule: evenodd;
      }
    </style>
  </defs>
  <g>
    <rect width="48" height="48" class="cls-1"/>
    <path d="M11.993,24.000 C11.993,28.753 14.755,32.862 18.761,34.806 L13.033,19.113 C12.367,20.607 11.993,22.259 11.993,24.000 ZM32.107,23.394 C32.107,21.910 31.572,20.882 31.116,20.082 C30.508,19.093 29.938,18.257 29.938,17.266 C29.938,16.162 30.773,15.136 31.955,15.136 C32.006,15.136 32.058,15.142 32.109,15.146 C29.973,13.188 27.127,11.992 24.001,11.992 C19.806,11.992 16.115,14.145 13.969,17.406 C14.251,17.414 14.516,17.420 14.741,17.420 C15.998,17.420 17.942,17.266 17.942,17.266 C18.587,17.230 18.665,18.180 18.018,18.257 C18.018,18.257 17.368,18.332 16.643,18.371 L21.017,31.376 L23.644,23.497 L21.774,18.371 C21.126,18.332 20.514,18.257 20.514,18.257 C19.867,18.219 19.943,17.230 20.591,17.266 C20.591,17.266 22.572,17.420 23.752,17.420 C25.008,17.420 26.954,17.266 26.954,17.266 C27.599,17.230 27.676,18.180 27.029,18.257 C27.029,18.257 26.379,18.332 25.655,18.371 L29.995,31.277 L31.193,27.276 C31.801,25.715 32.107,24.422 32.107,23.394 ZM24.212,25.052 L20.608,35.520 C21.684,35.836 22.822,36.008 24.001,36.008 C25.399,36.008 26.741,35.767 27.988,35.327 C27.956,35.276 27.927,35.222 27.903,35.163 L24.212,25.052 ZM34.537,18.239 C34.590,18.622 34.620,19.032 34.620,19.474 C34.620,20.692 34.391,22.062 33.706,23.775 L30.039,34.378 C33.607,32.297 36.007,28.431 36.007,24.000 C36.007,21.912 35.474,19.950 34.537,18.239 Z" class="cls-2"/>
  </g>
</svg>
