<svg xmlns="http://www.w3.org/2000/svg" xmlns:xlink="http://www.w3.org/1999/xlink" preserveAspectRatio="xMidYMid" width="48" height="48" viewBox="0 0 48 48">
  <defs>
    <style>
      .cls-1 {
        fill: #036467;
      }

      .cls-2 {
        fill: #fff;
        fill-rule: evenodd;
      }
    </style>
  </defs>
  <g>
    <rect width="48" height="48" class="cls-1"/>
    <path d="M35.889,10.881 L27.266,26.690 C27.260,26.698 27.260,26.708 27.266,26.717 L32.757,37.118 C32.866,37.342 32.868,37.570 32.765,37.742 C32.666,37.908 32.482,38.000 32.248,38.000 L28.357,38.000 C27.761,38.000 27.462,37.589 27.269,37.231 C27.269,37.231 21.749,26.731 21.735,26.704 C22.011,26.197 30.402,10.769 30.402,10.769 C30.611,10.380 30.863,10.000 31.445,10.000 L35.380,10.000 C35.614,10.000 35.798,10.092 35.897,10.258 C36.000,10.430 35.997,10.658 35.889,10.881 ZM17.472,29.618 L13.577,29.618 C13.342,29.618 13.167,29.509 13.068,29.342 C12.965,29.170 12.960,28.946 13.068,28.723 L17.206,21.151 C17.211,21.143 17.211,21.137 17.206,21.128 L14.573,16.402 C14.464,16.177 14.448,15.955 14.551,15.782 C14.650,15.615 14.847,15.530 15.082,15.530 L18.977,15.530 C19.574,15.530 19.867,15.929 20.061,16.287 C20.061,16.287 22.723,21.102 22.739,21.128 C22.581,21.416 18.534,28.838 18.534,28.838 C18.335,29.210 18.054,29.618 17.472,29.618 Z" class="cls-2"/>
  </g>
</svg>
