<svg xmlns="http://www.w3.org/2000/svg" xmlns:xlink="http://www.w3.org/1999/xlink" preserveAspectRatio="xMidYMid" width="48" height="48" viewBox="0 0 48 48">
  <defs>
    <style>
      .cls-1 {
        fill: #c2221b;
      }

      .cls-2 {
        fill: #fff;
        fill-rule: evenodd;
      }
    </style>
  </defs>
  <g>
    <rect width="48" height="48" class="cls-1"/>
    <path d="M35.963,32.324 C35.762,33.622 33.151,36.915 31.947,37.414 C31.445,37.613 31.043,37.514 30.943,37.314 C30.742,37.214 30.541,36.815 27.730,32.225 L26.927,30.827 C26.525,30.329 26.625,29.730 27.027,29.231 C27.328,28.732 27.931,28.532 28.433,28.732 L30.541,29.430 C35.159,31.027 35.360,31.027 35.561,31.227 C35.862,31.526 36.063,31.825 35.963,32.324 ZM35.159,24.042 C34.959,24.141 34.758,24.241 29.437,25.539 C28.633,25.738 28.131,25.838 27.931,25.838 C27.328,26.037 26.726,25.738 26.425,25.239 C26.123,24.740 26.123,24.141 26.425,23.742 L27.730,21.946 C30.541,17.954 30.742,17.755 30.943,17.655 C31.244,17.455 31.645,17.455 32.047,17.655 C33.252,18.254 35.561,21.746 35.661,23.044 C35.661,23.443 35.461,23.842 35.159,24.042 ZM23.111,23.243 C22.810,23.243 22.107,23.543 21.103,21.946 C21.103,21.946 14.678,11.568 14.477,11.268 C14.477,10.969 14.577,10.470 14.878,10.171 C15.782,9.173 21.003,7.676 22.409,8.075 C22.910,8.175 23.212,8.474 23.312,8.873 C23.412,9.272 24.015,18.852 24.115,21.048 C24.216,22.844 23.412,23.144 23.111,23.243 ZM20.601,25.439 C21.103,25.638 21.404,26.237 21.404,26.836 C21.404,27.534 21.003,28.033 20.501,28.133 L18.392,28.832 C13.674,30.428 13.473,30.428 13.272,30.428 C12.870,30.428 12.569,30.229 12.368,29.830 C12.268,29.630 12.168,29.131 12.067,28.532 C11.866,26.836 12.067,24.141 12.569,23.343 C12.770,22.944 13.172,22.744 13.573,22.645 C13.774,22.645 14.075,22.744 19.095,24.840 L20.601,25.439 ZM20.501,31.825 L21.505,30.528 C21.906,30.029 22.509,29.929 23.111,30.129 C23.714,30.428 24.015,30.927 24.015,31.426 C24.015,31.526 24.015,33.721 24.015,33.721 C24.015,38.811 24.015,39.010 23.915,39.210 C23.714,39.509 23.412,39.809 22.910,40.008 C21.706,40.208 17.690,38.711 16.886,37.713 C16.686,37.414 16.585,37.214 16.585,37.015 C16.585,36.815 16.585,36.615 16.686,36.516 C16.786,36.216 16.987,36.017 20.501,31.825 Z" class="cls-2"/>
  </g>
</svg>
