<svg xmlns="http://www.w3.org/2000/svg" xmlns:xlink="http://www.w3.org/1999/xlink" preserveAspectRatio="xMidYMid" width="48" height="48" viewBox="0 0 48 48">
  <defs>
    <style>
      .cls-1 {
        fill: #e52117;
      }

      .cls-2 {
        fill: #fff;
        fill-rule: evenodd;
      }
    </style>
  </defs>
  <g>
    <rect width="48" height="48" class="cls-1"/>
    <path d="M39.680,17.975 C39.680,17.975 39.368,15.722 38.408,14.731 C37.192,13.429 35.828,13.422 35.202,13.346 C30.724,13.015 24.007,13.015 24.007,13.015 L23.993,13.015 C23.993,13.015 17.276,13.015 12.798,13.346 C12.172,13.422 10.809,13.429 9.592,14.731 C8.632,15.722 8.320,17.975 8.320,17.975 C8.320,17.975 8.000,20.620 8.000,23.266 L8.000,25.746 C8.000,28.391 8.320,31.036 8.320,31.036 C8.320,31.036 8.632,33.289 9.592,34.281 C10.809,35.583 12.408,35.541 13.120,35.678 C15.680,35.929 24.000,36.006 24.000,36.006 C24.000,36.006 30.724,35.996 35.202,35.665 C35.828,35.589 37.192,35.583 38.408,34.281 C39.368,33.289 39.680,31.036 39.680,31.036 C39.680,31.036 40.000,28.391 40.000,25.746 L40.000,23.266 C40.000,20.620 39.680,17.975 39.680,17.975 ZM20.696,28.751 L20.695,19.566 L29.341,24.174 L20.696,28.751 Z" class="cls-2"/>
  </g>
</svg>
